<svg version="1.1" viewBox="0.0 0.0 731.1811023622047 462.0" fill="none" stroke="none" stroke-linecap="square" stroke-miterlimit="10" xmlns:xlink="http://www.w3.org/1999/xlink" xmlns="http://www.w3.org/2000/svg"><clipPath id="p.0"><path d="m0 0l731.1811 0l0 462.0l-731.1811 0l0 -462.0z" clip-rule="nonzero"/></clipPath><g clip-path="url(#p.0)"><path fill="#000000" fill-opacity="0.0" d="m0 0l731.1811 0l0 462.0l-731.1811 0z" fill-rule="evenodd"/><path fill="#000000" fill-opacity="0.0" d="m507.7874 98.74016l172.0 0l0 27.968506l-172.0 0z" fill-rule="evenodd"/><path stroke="#000000" stroke-width="1.0" stroke-linejoin="round" stroke-linecap="butt" stroke-dasharray="4.0,3.0" d="m507.7874 98.74016l172.0 0l0 27.968506l-172.0 0z" fill-rule="evenodd"/><path fill="#000000" d="m527.3343 111.86566l-2.3125 0l0 -1.125l3.6875 0l0 6.703125l2.34375 0l0 1.140625l-6.296875 0l0 -1.140625l2.578125 0l0 -5.578125zm0.484375 -4.421875q0.21875 0 0.40625 0.09375q0.203125 0.078125 0.34375 0.234375q0.15625 0.140625 0.234375 0.328125q0.078125 0.1875 0.078125 0.421875q0 0.21875 -0.078125 0.421875q-0.078125 0.1875 -0.234375 0.34375q-0.140625 0.140625 -0.34375 0.21875q-0.1875 0.078125 -0.40625 0.078125q-0.234375 0 -0.4375 -0.078125q-0.1875 -0.078125 -0.328125 -0.21875q-0.140625 -0.15625 -0.234375 -0.34375q-0.078125 -0.203125 -0.078125 -0.421875q0 -0.234375 0.078125 -0.421875q0.09375 -0.1875 0.234375 -0.328125q0.140625 -0.15625 0.328125 -0.234375q0.203125 -0.09375 0.4375 -0.09375zm5.640625 3.296875l1.21875 0l0.046875 1.265625q0.34375 -0.40625 0.65625 -0.671875q0.328125 -0.28125 0.640625 -0.4375q0.3125 -0.171875 0.625 -0.234375q0.328125 -0.0625 0.671875 -0.0625q1.203125 0 1.828125 0.71875q0.625 0.703125 0.625 2.140625l0 5.125l-1.359375 0l0 -5.015625q0 -0.921875 -0.34375 -1.359375q-0.34375 -0.4375 -1.03125 -0.4375q-0.25 0 -0.484375 0.078125q-0.234375 0.0625 -0.5 0.25q-0.25 0.1875 -0.5625 0.5q-0.296875 0.3125 -0.671875 0.78125l0 5.203125l-1.359375 0l0 -7.84375zm15.015625 5.703125q0 0.40625 -0.140625 0.734375q-0.140625 0.328125 -0.390625 0.59375q-0.234375 0.25 -0.5625 0.4375q-0.3125 0.171875 -0.6875 0.296875q-0.359375 0.109375 -0.75 0.15625q-0.375 0.0625 -0.734375 0.0625q-0.796875 0 -1.46875 -0.078125q-0.671875 -0.0625 -1.3125 -0.21875l0 -1.25q0.6875 0.1875 1.359375 0.296875q0.6875 0.09375 1.359375 0.09375q0.984375 0 1.453125 -0.265625q0.46875 -0.265625 0.46875 -0.75q0 -0.21875 -0.078125 -0.375q-0.078125 -0.171875 -0.28125 -0.328125q-0.1875 -0.15625 -0.59375 -0.3125q-0.40625 -0.171875 -1.125 -0.375q-0.53125 -0.15625 -0.984375 -0.359375q-0.4375 -0.203125 -0.765625 -0.46875q-0.328125 -0.28125 -0.515625 -0.640625q-0.1875 -0.375 -0.1875 -0.875q0 -0.328125 0.140625 -0.71875q0.15625 -0.390625 0.515625 -0.71875q0.375 -0.34375 1.0 -0.5625q0.625 -0.21875 1.5625 -0.21875q0.46875 0 1.03125 0.046875q0.5625 0.046875 1.171875 0.171875l0 1.21875q-0.640625 -0.15625 -1.21875 -0.234375q-0.578125 -0.078125 -1.0 -0.078125q-0.5 0 -0.859375 0.078125q-0.34375 0.078125 -0.5625 0.21875q-0.203125 0.140625 -0.296875 0.328125q-0.09375 0.171875 -0.09375 0.390625q0 0.203125 0.078125 0.375q0.078125 0.171875 0.296875 0.34375q0.234375 0.15625 0.625 0.3125q0.40625 0.15625 1.046875 0.34375q0.6875 0.203125 1.15625 0.4375q0.484375 0.21875 0.78125 0.5q0.296875 0.265625 0.421875 0.609375q0.140625 0.34375 0.140625 0.78125zm8.90625 2.03125q-0.46875 0.125 -0.96875 0.171875q-0.484375 0.046875 -0.984375 0.046875q-1.484375 0 -2.21875 -0.671875q-0.71875 -0.671875 -0.71875 -2.046875l0 -4.09375l-2.1875 0l0 -1.140625l2.1875 0l0 -2.15625l1.359375 -0.359375l0 2.515625l3.53125 0l0 1.140625l-3.53125 0l0 3.984375q0 0.84375 0.453125 1.265625q0.453125 0.40625 1.328125 0.40625q0.375 0 0.8125 -0.046875q0.453125 -0.0625 0.9375 -0.1875l0 1.171875zm7.515625 0.109375l-0.03125 -1.0625q-0.640625 0.640625 -1.3125 0.921875q-0.65625 0.28125 -1.375 0.28125q-0.671875 0 -1.15625 -0.171875q-0.46875 -0.171875 -0.78125 -0.46875q-0.3125 -0.3125 -0.453125 -0.71875q-0.140625 -0.40625 -0.140625 -0.875q0 -1.1875 0.875 -1.84375q0.875 -0.671875 2.59375 -0.671875l1.625 0l0 -0.6875q0 -0.703125 -0.453125 -1.109375q-0.4375 -0.421875 -1.34375 -0.421875q-0.671875 0 -1.3125 0.15625q-0.640625 0.140625 -1.328125 0.40625l0 -1.21875q0.25 -0.09375 0.5625 -0.1875q0.328125 -0.09375 0.671875 -0.15625q0.359375 -0.078125 0.734375 -0.109375q0.390625 -0.046875 0.78125 -0.046875q0.703125 0 1.265625 0.15625q0.578125 0.15625 0.96875 0.484375q0.40625 0.3125 0.609375 0.796875q0.21875 0.484375 0.21875 1.140625l0 5.40625l-1.21875 0zm-0.15625 -3.578125l-1.71875 0q-0.515625 0 -0.890625 0.109375q-0.359375 0.09375 -0.59375 0.28125q-0.234375 0.1875 -0.34375 0.453125q-0.109375 0.265625 -0.109375 0.59375q0 0.21875 0.0625 0.4375q0.078125 0.203125 0.234375 0.359375q0.15625 0.15625 0.40625 0.25q0.25 0.09375 0.609375 0.09375q0.46875 0 1.0625 -0.28125q0.609375 -0.28125 1.28125 -0.90625l0 -1.390625zm3.90625 -4.265625l1.21875 0l0.046875 1.265625q0.34375 -0.40625 0.65625 -0.671875q0.328125 -0.28125 0.640625 -0.4375q0.3125 -0.171875 0.625 -0.234375q0.328125 -0.0625 0.671875 -0.0625q1.203125 0 1.828125 0.71875q0.625 0.703125 0.625 2.140625l0 5.125l-1.359375 0l0 -5.015625q0 -0.921875 -0.34375 -1.359375q-0.34375 -0.4375 -1.03125 -0.4375q-0.25 0 -0.484375 0.078125q-0.234375 0.0625 -0.5 0.25q-0.25 0.1875 -0.5625 0.5q-0.296875 0.3125 -0.671875 0.78125l0 5.203125l-1.359375 0l0 -7.84375zm14.890625 7.546875q-0.53125 0.203125 -1.09375 0.296875q-0.546875 0.109375 -1.140625 0.109375q-1.859375 0 -2.875 -1.0q-1.0 -1.015625 -1.0 -2.953125q0 -0.9375 0.28125 -1.6875q0.296875 -0.765625 0.8125 -1.296875q0.53125 -0.546875 1.25 -0.828125q0.734375 -0.296875 1.609375 -0.296875q0.609375 0 1.140625 0.09375q0.53125 0.078125 1.015625 0.265625l0 1.296875q-0.5 -0.265625 -1.03125 -0.375q-0.53125 -0.125 -1.09375 -0.125q-0.515625 0 -0.984375 0.203125q-0.46875 0.1875 -0.828125 0.5625q-0.34375 0.375 -0.546875 0.921875q-0.203125 0.53125 -0.203125 1.21875q0 1.421875 0.6875 2.125q0.703125 0.703125 1.921875 0.703125q0.5625 0 1.078125 -0.125q0.515625 -0.125 1.0 -0.375l0 1.265625zm9.328125 -4.046875q0 0.296875 -0.015625 0.5q0 0.1875 -0.015625 0.359375l-5.5 0q0 1.203125 0.671875 1.84375q0.671875 0.640625 1.9375 0.640625q0.34375 0 0.6875 -0.015625q0.34375 -0.03125 0.65625 -0.078125q0.328125 -0.046875 0.609375 -0.109375q0.296875 -0.0625 0.546875 -0.125l0 1.109375q-0.546875 0.15625 -1.25 0.25q-0.703125 0.109375 -1.453125 0.109375q-1.0 0 -1.734375 -0.265625q-0.71875 -0.28125 -1.1875 -0.796875q-0.46875 -0.53125 -0.6875 -1.28125q-0.21875 -0.75 -0.21875 -1.703125q0 -0.828125 0.234375 -1.5625q0.234375 -0.75 0.6875 -1.296875q0.46875 -0.5625 1.125 -0.890625q0.671875 -0.328125 1.515625 -0.328125q0.8125 0 1.4375 0.265625q0.640625 0.25 1.078125 0.71875q0.4375 0.46875 0.65625 1.15625q0.21875 0.671875 0.21875 1.5zm-1.40625 -0.1875q0.015625 -0.53125 -0.109375 -0.953125q-0.125 -0.4375 -0.390625 -0.75q-0.25 -0.3125 -0.640625 -0.484375q-0.390625 -0.1875 -0.90625 -0.1875q-0.453125 0 -0.828125 0.171875q-0.359375 0.171875 -0.625 0.484375q-0.265625 0.3125 -0.4375 0.75q-0.15625 0.4375 -0.1875 0.96875l4.125 0zm9.796875 2.390625q0 0.40625 -0.140625 0.734375q-0.140625 0.328125 -0.390625 0.59375q-0.234375 0.25 -0.5625 0.4375q-0.3125 0.171875 -0.6875 0.296875q-0.359375 0.109375 -0.75 0.15625q-0.375 0.0625 -0.734375 0.0625q-0.796875 0 -1.46875 -0.078125q-0.671875 -0.0625 -1.3125 -0.21875l0 -1.25q0.6875 0.1875 1.359375 0.296875q0.6875 0.09375 1.359375 0.09375q0.984375 0 1.453125 -0.265625q0.46875 -0.265625 0.46875 -0.75q0 -0.21875 -0.078125 -0.375q-0.078125 -0.171875 -0.28125 -0.328125q-0.1875 -0.15625 -0.59375 -0.3125q-0.40625 -0.171875 -1.125 -0.375q-0.53125 -0.15625 -0.984375 -0.359375q-0.4375 -0.203125 -0.765625 -0.46875q-0.328125 -0.28125 -0.515625 -0.640625q-0.1875 -0.375 -0.1875 -0.875q0 -0.328125 0.140625 -0.71875q0.15625 -0.390625 0.515625 -0.71875q0.375 -0.34375 1.0 -0.5625q0.625 -0.21875 1.5625 -0.21875q0.46875 0 1.03125 0.046875q0.5625 0.046875 1.171875 0.171875l0 1.21875q-0.640625 -0.15625 -1.21875 -0.234375q-0.578125 -0.078125 -1.0 -0.078125q-0.5 0 -0.859375 0.078125q-0.34375 0.078125 -0.5625 0.21875q-0.203125 0.140625 -0.296875 0.328125q-0.09375 0.171875 -0.09375 0.390625q0 0.203125 0.078125 0.375q0.078125 0.171875 0.296875 0.34375q0.234375 0.15625 0.625 0.3125q0.40625 0.15625 1.046875 0.34375q0.6875 0.203125 1.15625 0.4375q0.484375 0.21875 0.78125 0.5q0.296875 0.265625 0.421875 0.609375q0.140625 0.34375 0.140625 0.78125zm5.671875 -0.328125q0.265625 0 0.5 0.109375q0.234375 0.09375 0.40625 0.28125q0.1875 0.171875 0.28125 0.421875q0.109375 0.234375 0.109375 0.5q0 0.265625 -0.109375 0.5q-0.09375 0.234375 -0.28125 0.421875q-0.171875 0.171875 -0.40625 0.265625q-0.234375 0.109375 -0.5 0.109375q-0.28125 0 -0.515625 -0.109375q-0.234375 -0.09375 -0.40625 -0.265625q-0.171875 -0.1875 -0.28125 -0.421875q-0.09375 -0.234375 -0.09375 -0.5q0 -0.265625 0.09375 -0.5q0.109375 -0.25 0.28125 -0.421875q0.171875 -0.1875 0.40625 -0.28125q0.234375 -0.109375 0.515625 -0.109375zm11.921875 0.328125q0 0.40625 -0.140625 0.734375q-0.140625 0.328125 -0.390625 0.59375q-0.234375 0.25 -0.5625 0.4375q-0.3125 0.171875 -0.6875 0.296875q-0.359375 0.109375 -0.75 0.15625q-0.375 0.0625 -0.734375 0.0625q-0.796875 0 -1.46875 -0.078125q-0.671875 -0.0625 -1.3125 -0.21875l0 -1.25q0.6875 0.1875 1.359375 0.296875q0.6875 0.09375 1.359375 0.09375q0.984375 0 1.453125 -0.265625q0.46875 -0.265625 0.46875 -0.75q0 -0.21875 -0.078125 -0.375q-0.078125 -0.171875 -0.28125 -0.328125q-0.1875 -0.15625 -0.59375 -0.3125q-0.40625 -0.171875 -1.125 -0.375q-0.53125 -0.15625 -0.984375 -0.359375q-0.4375 -0.203125 -0.765625 -0.46875q-0.328125 -0.28125 -0.515625 -0.640625q-0.1875 -0.375 -0.1875 -0.875q0 -0.328125 0.140625 -0.71875q0.15625 -0.390625 0.515625 -0.71875q0.375 -0.34375 1.0 -0.5625q0.625 -0.21875 1.5625 -0.21875q0.46875 0 1.03125 0.046875q0.5625 0.046875 1.171875 0.171875l0 1.21875q-0.640625 -0.15625 -1.21875 -0.234375q-0.578125 -0.078125 -1.0 -0.078125q-0.5 0 -0.859375 0.078125q-0.34375 0.078125 -0.5625 0.21875q-0.203125 0.140625 -0.296875 0.328125q-0.09375 0.171875 -0.09375 0.390625q0 0.203125 0.078125 0.375q0.078125 0.171875 0.296875 0.34375q0.234375 0.15625 0.625 0.3125q0.40625 0.15625 1.046875 0.34375q0.6875 0.203125 1.15625 0.4375q0.484375 0.21875 0.78125 0.5q0.296875 0.265625 0.421875 0.609375q0.140625 0.34375 0.140625 0.78125zm8.90625 2.03125q-0.46875 0.125 -0.96875 0.171875q-0.484375 0.046875 -0.984375 0.046875q-1.484375 0 -2.21875 -0.671875q-0.71875 -0.671875 -0.71875 -2.046875l0 -4.09375l-2.1875 0l0 -1.140625l2.1875 0l0 -2.15625l1.359375 -0.359375l0 2.515625l3.53125 0l0 1.140625l-3.53125 0l0 3.984375q0 0.84375 0.453125 1.265625q0.453125 0.40625 1.328125 0.40625q0.375 0 0.8125 -0.046875q0.453125 -0.0625 0.9375 -0.1875l0 1.171875zm9.296875 -3.875q0 0.90625 -0.265625 1.671875q-0.25 0.765625 -0.734375 1.3125q-0.484375 0.53125 -1.1875 0.84375q-0.6875 0.296875 -1.5625 0.296875q-0.84375 0 -1.515625 -0.265625q-0.671875 -0.265625 -1.140625 -0.765625q-0.453125 -0.515625 -0.703125 -1.265625q-0.25 -0.75 -0.25 -1.71875q0 -0.921875 0.25 -1.671875q0.265625 -0.75 0.75 -1.296875q0.484375 -0.546875 1.171875 -0.84375q0.703125 -0.296875 1.59375 -0.296875q0.84375 0 1.5 0.265625q0.671875 0.25 1.140625 0.765625q0.46875 0.5 0.703125 1.25q0.25 0.75 0.25 1.71875zm-1.390625 0.0625q0 -0.734375 -0.15625 -1.265625q-0.15625 -0.546875 -0.453125 -0.90625q-0.296875 -0.375 -0.734375 -0.546875q-0.421875 -0.1875 -0.9375 -0.1875q-0.609375 0 -1.046875 0.234375q-0.4375 0.234375 -0.71875 0.640625q-0.265625 0.390625 -0.40625 0.921875q-0.125 0.53125 -0.125 1.109375q0 0.71875 0.15625 1.265625q0.171875 0.546875 0.46875 0.921875q0.296875 0.359375 0.71875 0.546875q0.421875 0.171875 0.953125 0.171875q0.609375 0 1.03125 -0.234375q0.4375 -0.234375 0.71875 -0.625q0.28125 -0.40625 0.40625 -0.9375q0.125 -0.53125 0.125 -1.109375zm10.0625 -0.140625q0 1.046875 -0.296875 1.828125q-0.28125 0.78125 -0.796875 1.296875q-0.515625 0.515625 -1.21875 0.78125q-0.703125 0.25 -1.53125 0.25q-0.375 0 -0.75 -0.046875q-0.359375 -0.03125 -0.75 -0.125l0 3.28125l-1.359375 0l0 -11.046875l1.21875 0l0.078125 1.3125q0.59375 -0.8125 1.25 -1.125q0.671875 -0.328125 1.4375 -0.328125q0.671875 0 1.171875 0.28125q0.515625 0.28125 0.859375 0.796875q0.34375 0.5 0.515625 1.234375q0.171875 0.71875 0.171875 1.609375zm-1.390625 0.0625q0 -0.625 -0.09375 -1.140625q-0.078125 -0.515625 -0.28125 -0.875q-0.1875 -0.375 -0.5 -0.578125q-0.296875 -0.203125 -0.71875 -0.203125q-0.265625 0 -0.53125 0.078125q-0.265625 0.078125 -0.546875 0.28125q-0.28125 0.1875 -0.609375 0.5q-0.3125 0.3125 -0.671875 0.78125l0 3.8125q0.375 0.15625 0.78125 0.25q0.421875 0.078125 0.828125 0.078125q1.09375 0 1.71875 -0.734375q0.625 -0.75 0.625 -2.25zm8.1875 7.28125q-3.609375 -3.34375 -3.609375 -7.375q0 -0.953125 0.1875 -1.890625q0.203125 -0.9375 0.625 -1.875q0.421875 -0.953125 1.125 -1.890625q0.703125 -0.953125 1.703125 -1.890625l0.78125 0.8125q-3.03125 2.984375 -3.03125 6.625q0 1.8125 0.765625 3.5q0.765625 1.671875 2.265625 3.15625l-0.8125 0.828125zm5.703125 -14.921875q3.59375 3.34375 3.59375 7.421875q0 0.84375 -0.171875 1.75q-0.171875 0.90625 -0.59375 1.859375q-0.40625 0.953125 -1.109375 1.921875q-0.6875 0.984375 -1.75 1.96875l-0.796875 -0.796875q1.53125 -1.515625 2.28125 -3.15625q0.75 -1.640625 0.75 -3.4375q0 -3.71875 -3.03125 -6.6875l0.828125 -0.84375z" fill-rule="nonzero"/><path fill="#000000" fill-opacity="0.0" d="m251.62204 271.54855l-75.842514 0l0 -198.48819" fill-rule="evenodd"/><path stroke="#000000" stroke-width="2.0" stroke-linejoin="round" stroke-linecap="butt" d="m251.62204 271.54855l-75.842514 0l0 -186.48819" fill-rule="evenodd"/><path fill="#000000" stroke="#000000" stroke-width="2.0" stroke-linecap="butt" d="m179.083 85.06036l-3.3034668 -9.076195l-3.3034668 9.076195z" fill-rule="evenodd"/><path fill="#000000" fill-opacity="0.0" d="m251.62204 257.5643l197.00787 0l0 27.968506l-197.00787 0z" fill-rule="evenodd"/><path stroke="#000000" stroke-width="1.0" stroke-linejoin="round" stroke-linecap="butt" stroke-dasharray="4.0,3.0" d="m251.62204 257.5643l197.00787 0l0 27.968506l-197.00787 0z" fill-rule="evenodd"/><path fill="#000000" d="m279.2744 270.68982l-2.3125 0l0 -1.125l3.6875 0l0 6.703125l2.34375 0l0 1.140625l-6.296875 0l0 -1.140625l2.578125 0l0 -5.578125zm0.484375 -4.421875q0.21875 0 0.40625 0.09375q0.203125 0.078125 0.34375 0.234375q0.15625 0.140625 0.234375 0.328125q0.078125 0.1875 0.078125 0.421875q0 0.21875 -0.078125 0.421875q-0.078125 0.1875 -0.234375 0.34375q-0.140625 0.140625 -0.34375 0.21875q-0.1875 0.078125 -0.40625 0.078125q-0.234375 0 -0.4375 -0.078125q-0.1875 -0.078125 -0.328125 -0.21875q-0.140625 -0.15625 -0.234375 -0.34375q-0.078125 -0.203125 -0.078125 -0.421875q0 -0.234375 0.078125 -0.421875q0.09375 -0.1875 0.234375 -0.328125q0.140625 -0.15625 0.328125 -0.234375q0.203125 -0.09375 0.4375 -0.09375zm5.640625 3.296875l1.21875 0l0.046875 1.265625q0.34375 -0.40625 0.65625 -0.671875q0.328125 -0.28125 0.640625 -0.4375q0.3125 -0.171875 0.625 -0.234375q0.328125 -0.0625 0.671875 -0.0625q1.203125 0 1.828125 0.71875q0.625 0.703125 0.625 2.140625l0 5.125l-1.359375 0l0 -5.015625q0 -0.921875 -0.34375 -1.359375q-0.34375 -0.4375 -1.03125 -0.4375q-0.25 0 -0.484375 0.078125q-0.234375 0.0625 -0.5 0.25q-0.25 0.1875 -0.5625 0.5q-0.296875 0.3125 -0.671875 0.78125l0 5.203125l-1.359375 0l0 -7.84375zm15.015625 5.703125q0 0.40625 -0.140625 0.734375q-0.140625 0.328125 -0.390625 0.59375q-0.234375 0.25 -0.5625 0.4375q-0.3125 0.171875 -0.6875 0.296875q-0.359375 0.109375 -0.75 0.15625q-0.375 0.0625 -0.734375 0.0625q-0.796875 0 -1.46875 -0.078125q-0.671875 -0.0625 -1.3125 -0.21875l0 -1.25q0.6875 0.1875 1.359375 0.296875q0.6875 0.09375 1.359375 0.09375q0.984375 0 1.453125 -0.265625q0.46875 -0.265625 0.46875 -0.75q0 -0.21875 -0.078125 -0.375q-0.078125 -0.171875 -0.28125 -0.328125q-0.1875 -0.15625 -0.59375 -0.3125q-0.40625 -0.171875 -1.125 -0.375q-0.53125 -0.15625 -0.984375 -0.359375q-0.4375 -0.203125 -0.765625 -0.46875q-0.328125 -0.28125 -0.515625 -0.640625q-0.1875 -0.375 -0.1875 -0.875q0 -0.328125 0.140625 -0.71875q0.15625 -0.390625 0.515625 -0.71875q0.375 -0.34375 1.0 -0.5625q0.625 -0.21875 1.5625 -0.21875q0.46875 0 1.03125 0.046875q0.5625 0.046875 1.171875 0.171875l0 1.21875q-0.640625 -0.15625 -1.21875 -0.234375q-0.578125 -0.078125 -1.0 -0.078125q-0.5 0 -0.859375 0.078125q-0.34375 0.078125 -0.5625 0.21875q-0.203125 0.140625 -0.296875 0.328125q-0.09375 0.171875 -0.09375 0.390625q0 0.203125 0.078125 0.375q0.078125 0.171875 0.296875 0.34375q0.234375 0.15625 0.625 0.3125q0.40625 0.15625 1.046875 0.34375q0.6875 0.203125 1.15625 0.4375q0.484375 0.21875 0.78125 0.5q0.296875 0.265625 0.421875 0.609375q0.140625 0.34375 0.140625 0.78125zm8.90625 2.03125q-0.46875 0.125 -0.96875 0.171875q-0.484375 0.046875 -0.984375 0.046875q-1.484375 0 -2.21875 -0.671875q-0.71875 -0.671875 -0.71875 -2.046875l0 -4.09375l-2.1875 0l0 -1.140625l2.1875 0l0 -2.15625l1.359375 -0.359375l0 2.515625l3.53125 0l0 1.140625l-3.53125 0l0 3.984375q0 0.84375 0.453125 1.265625q0.453125 0.40625 1.328125 0.40625q0.375 0 0.8125 -0.046875q0.453125 -0.0625 0.9375 -0.1875l0 1.171875zm7.515625 0.109375l-0.03125 -1.0625q-0.640625 0.640625 -1.3125 0.921875q-0.65625 0.28125 -1.375 0.28125q-0.671875 0 -1.15625 -0.171875q-0.46875 -0.171875 -0.78125 -0.46875q-0.3125 -0.3125 -0.453125 -0.71875q-0.140625 -0.40625 -0.140625 -0.875q0 -1.1875 0.875 -1.84375q0.875 -0.671875 2.59375 -0.671875l1.625 0l0 -0.6875q0 -0.703125 -0.453125 -1.109375q-0.4375 -0.421875 -1.34375 -0.421875q-0.671875 0 -1.3125 0.15625q-0.640625 0.140625 -1.328125 0.40625l0 -1.21875q0.25 -0.09375 0.5625 -0.1875q0.328125 -0.09375 0.671875 -0.15625q0.359375 -0.078125 0.734375 -0.109375q0.390625 -0.046875 0.78125 -0.046875q0.703125 0 1.265625 0.15625q0.578125 0.15625 0.96875 0.484375q0.40625 0.3125 0.609375 0.796875q0.21875 0.484375 0.21875 1.140625l0 5.40625l-1.21875 0zm-0.15625 -3.578125l-1.71875 0q-0.515625 0 -0.890625 0.109375q-0.359375 0.09375 -0.59375 0.28125q-0.234375 0.1875 -0.34375 0.453125q-0.109375 0.265625 -0.109375 0.59375q0 0.21875 0.0625 0.4375q0.078125 0.203125 0.234375 0.359375q0.15625 0.15625 0.40625 0.25q0.25 0.09375 0.609375 0.09375q0.46875 0 1.0625 -0.28125q0.609375 -0.28125 1.28125 -0.90625l0 -1.390625zm3.90625 -4.265625l1.21875 0l0.046875 1.265625q0.34375 -0.40625 0.65625 -0.671875q0.328125 -0.28125 0.640625 -0.4375q0.3125 -0.171875 0.625 -0.234375q0.328125 -0.0625 0.671875 -0.0625q1.203125 0 1.828125 0.71875q0.625 0.703125 0.625 2.140625l0 5.125l-1.359375 0l0 -5.015625q0 -0.921875 -0.34375 -1.359375q-0.34375 -0.4375 -1.03125 -0.4375q-0.25 0 -0.484375 0.078125q-0.234375 0.0625 -0.5 0.25q-0.25 0.1875 -0.5625 0.5q-0.296875 0.3125 -0.671875 0.78125l0 5.203125l-1.359375 0l0 -7.84375zm14.890625 7.546875q-0.53125 0.203125 -1.09375 0.296875q-0.546875 0.109375 -1.140625 0.109375q-1.859375 0 -2.875 -1.0q-1.0 -1.015625 -1.0 -2.953125q0 -0.9375 0.28125 -1.6875q0.296875 -0.765625 0.8125 -1.296875q0.53125 -0.546875 1.25 -0.828125q0.734375 -0.296875 1.609375 -0.296875q0.609375 0 1.140625 0.09375q0.53125 0.078125 1.015625 0.265625l0 1.296875q-0.5 -0.265625 -1.03125 -0.375q-0.53125 -0.125 -1.09375 -0.125q-0.515625 0 -0.984375 0.203125q-0.46875 0.1875 -0.828125 0.5625q-0.34375 0.375 -0.546875 0.921875q-0.203125 0.53125 -0.203125 1.21875q0 1.421875 0.6875 2.125q0.703125 0.703125 1.921875 0.703125q0.5625 0 1.078125 -0.125q0.515625 -0.125 1.0 -0.375l0 1.265625zm9.328125 -4.046875q0 0.296875 -0.015625 0.5q0 0.1875 -0.015625 0.359375l-5.5 0q0 1.203125 0.671875 1.84375q0.671875 0.640625 1.9375 0.640625q0.34375 0 0.6875 -0.015625q0.34375 -0.03125 0.65625 -0.078125q0.328125 -0.046875 0.609375 -0.109375q0.296875 -0.0625 0.546875 -0.125l0 1.109375q-0.546875 0.15625 -1.25 0.25q-0.703125 0.109375 -1.453125 0.109375q-1.0 0 -1.734375 -0.265625q-0.71875 -0.28125 -1.1875 -0.796875q-0.46875 -0.53125 -0.6875 -1.28125q-0.21875 -0.75 -0.21875 -1.703125q0 -0.828125 0.234375 -1.5625q0.234375 -0.75 0.6875 -1.296875q0.46875 -0.5625 1.125 -0.890625q0.671875 -0.328125 1.515625 -0.328125q0.8125 0 1.4375 0.265625q0.640625 0.25 1.078125 0.71875q0.4375 0.46875 0.65625 1.15625q0.21875 0.671875 0.21875 1.5zm-1.40625 -0.1875q0.015625 -0.53125 -0.109375 -0.953125q-0.125 -0.4375 -0.390625 -0.75q-0.25 -0.3125 -0.640625 -0.484375q-0.390625 -0.1875 -0.90625 -0.1875q-0.453125 0 -0.828125 0.171875q-0.359375 0.171875 -0.625 0.484375q-0.265625 0.3125 -0.4375 0.75q-0.15625 0.4375 -0.1875 0.96875l4.125 0zm9.796875 2.390625q0 0.40625 -0.140625 0.734375q-0.140625 0.328125 -0.390625 0.59375q-0.234375 0.25 -0.5625 0.4375q-0.3125 0.171875 -0.6875 0.296875q-0.359375 0.109375 -0.75 0.15625q-0.375 0.0625 -0.734375 0.0625q-0.796875 0 -1.46875 -0.078125q-0.671875 -0.0625 -1.3125 -0.21875l0 -1.25q0.6875 0.1875 1.359375 0.296875q0.6875 0.09375 1.359375 0.09375q0.984375 0 1.453125 -0.265625q0.46875 -0.265625 0.46875 -0.75q0 -0.21875 -0.078125 -0.375q-0.078125 -0.171875 -0.28125 -0.328125q-0.1875 -0.15625 -0.59375 -0.3125q-0.40625 -0.171875 -1.125 -0.375q-0.53125 -0.15625 -0.984375 -0.359375q-0.4375 -0.203125 -0.765625 -0.46875q-0.328125 -0.28125 -0.515625 -0.640625q-0.1875 -0.375 -0.1875 -0.875q0 -0.328125 0.140625 -0.71875q0.15625 -0.390625 0.515625 -0.71875q0.375 -0.34375 1.0 -0.5625q0.625 -0.21875 1.5625 -0.21875q0.46875 0 1.03125 0.046875q0.5625 0.046875 1.171875 0.171875l0 1.21875q-0.640625 -0.15625 -1.21875 -0.234375q-0.578125 -0.078125 -1.0 -0.078125q-0.5 0 -0.859375 0.078125q-0.34375 0.078125 -0.5625 0.21875q-0.203125 0.140625 -0.296875 0.328125q-0.09375 0.171875 -0.09375 0.390625q0 0.203125 0.078125 0.375q0.078125 0.171875 0.296875 0.34375q0.234375 0.15625 0.625 0.3125q0.40625 0.15625 1.046875 0.34375q0.6875 0.203125 1.15625 0.4375q0.484375 0.21875 0.78125 0.5q0.296875 0.265625 0.421875 0.609375q0.140625 0.34375 0.140625 0.78125zm5.671875 -0.328125q0.265625 0 0.5 0.109375q0.234375 0.09375 0.40625 0.28125q0.1875 0.171875 0.28125 0.421875q0.109375 0.234375 0.109375 0.5q0 0.265625 -0.109375 0.5q-0.09375 0.234375 -0.28125 0.421875q-0.171875 0.171875 -0.40625 0.265625q-0.234375 0.109375 -0.5 0.109375q-0.28125 0 -0.515625 -0.109375q-0.234375 -0.09375 -0.40625 -0.265625q-0.171875 -0.1875 -0.28125 -0.421875q-0.09375 -0.234375 -0.09375 -0.5q0 -0.265625 0.09375 -0.5q0.109375 -0.25 0.28125 -0.421875q0.171875 -0.1875 0.40625 -0.28125q0.234375 -0.109375 0.515625 -0.109375zm11.921875 0.328125q0 0.40625 -0.140625 0.734375q-0.140625 0.328125 -0.390625 0.59375q-0.234375 0.25 -0.5625 0.4375q-0.3125 0.171875 -0.6875 0.296875q-0.359375 0.109375 -0.75 0.15625q-0.375 0.0625 -0.734375 0.0625q-0.796875 0 -1.46875 -0.078125q-0.671875 -0.0625 -1.3125 -0.21875l0 -1.25q0.6875 0.1875 1.359375 0.296875q0.6875 0.09375 1.359375 0.09375q0.984375 0 1.453125 -0.265625q0.46875 -0.265625 0.46875 -0.75q0 -0.21875 -0.078125 -0.375q-0.078125 -0.171875 -0.28125 -0.328125q-0.1875 -0.15625 -0.59375 -0.3125q-0.40625 -0.171875 -1.125 -0.375q-0.53125 -0.15625 -0.984375 -0.359375q-0.4375 -0.203125 -0.765625 -0.46875q-0.328125 -0.28125 -0.515625 -0.640625q-0.1875 -0.375 -0.1875 -0.875q0 -0.328125 0.140625 -0.71875q0.15625 -0.390625 0.515625 -0.71875q0.375 -0.34375 1.0 -0.5625q0.625 -0.21875 1.5625 -0.21875q0.46875 0 1.03125 0.046875q0.5625 0.046875 1.171875 0.171875l0 1.21875q-0.640625 -0.15625 -1.21875 -0.234375q-0.578125 -0.078125 -1.0 -0.078125q-0.5 0 -0.859375 0.078125q-0.34375 0.078125 -0.5625 0.21875q-0.203125 0.140625 -0.296875 0.328125q-0.09375 0.171875 -0.09375 0.390625q0 0.203125 0.078125 0.375q0.078125 0.171875 0.296875 0.34375q0.234375 0.15625 0.625 0.3125q0.40625 0.15625 1.046875 0.34375q0.6875 0.203125 1.15625 0.4375q0.484375 0.21875 0.78125 0.5q0.296875 0.265625 0.421875 0.609375q0.140625 0.34375 0.140625 0.78125zm8.90625 2.03125q-0.46875 0.125 -0.96875 0.171875q-0.484375 0.046875 -0.984375 0.046875q-1.484375 0 -2.21875 -0.671875q-0.71875 -0.671875 -0.71875 -2.046875l0 -4.09375l-2.1875 0l0 -1.140625l2.1875 0l0 -2.15625l1.359375 -0.359375l0 2.515625l3.53125 0l0 1.140625l-3.53125 0l0 3.984375q0 0.84375 0.453125 1.265625q0.453125 0.40625 1.328125 0.40625q0.375 0 0.8125 -0.046875q0.453125 -0.0625 0.9375 -0.1875l0 1.171875zm7.515625 0.109375l-0.03125 -1.0625q-0.640625 0.640625 -1.3125 0.921875q-0.65625 0.28125 -1.375 0.28125q-0.671875 0 -1.15625 -0.171875q-0.46875 -0.171875 -0.78125 -0.46875q-0.3125 -0.3125 -0.453125 -0.71875q-0.140625 -0.40625 -0.140625 -0.875q0 -1.1875 0.875 -1.84375q0.875 -0.671875 2.59375 -0.671875l1.625 0l0 -0.6875q0 -0.703125 -0.453125 -1.109375q-0.4375 -0.421875 -1.34375 -0.421875q-0.671875 0 -1.3125 0.15625q-0.640625 0.140625 -1.328125 0.40625l0 -1.21875q0.25 -0.09375 0.5625 -0.1875q0.328125 -0.09375 0.671875 -0.15625q0.359375 -0.078125 0.734375 -0.109375q0.390625 -0.046875 0.78125 -0.046875q0.703125 0 1.265625 0.15625q0.578125 0.15625 0.96875 0.484375q0.40625 0.3125 0.609375 0.796875q0.21875 0.484375 0.21875 1.140625l0 5.40625l-1.21875 0zm-0.15625 -3.578125l-1.71875 0q-0.515625 0 -0.890625 0.109375q-0.359375 0.09375 -0.59375 0.28125q-0.234375 0.1875 -0.34375 0.453125q-0.109375 0.265625 -0.109375 0.59375q0 0.21875 0.0625 0.4375q0.078125 0.203125 0.234375 0.359375q0.15625 0.15625 0.40625 0.25q0.25 0.09375 0.609375 0.09375q0.46875 0 1.0625 -0.28125q0.609375 -0.28125 1.28125 -0.90625l0 -1.390625zm4.234375 -4.265625l1.234375 0l0.046875 1.4375q0.6875 -0.828125 1.359375 -1.203125q0.6875 -0.375 1.375 -0.375q1.21875 0 1.84375 0.796875q0.625 0.78125 0.578125 2.328125l-1.375 0q0.03125 -1.03125 -0.296875 -1.484375q-0.328125 -0.46875 -0.953125 -0.46875q-0.265625 0 -0.546875 0.09375q-0.28125 0.09375 -0.578125 0.3125q-0.28125 0.21875 -0.609375 0.5625q-0.328125 0.328125 -0.703125 0.796875l0 5.046875l-1.375 0l0 -7.84375zm14.796875 7.734375q-0.46875 0.125 -0.96875 0.171875q-0.484375 0.046875 -0.984375 0.046875q-1.484375 0 -2.21875 -0.671875q-0.71875 -0.671875 -0.71875 -2.046875l0 -4.09375l-2.1875 0l0 -1.140625l2.1875 0l0 -2.15625l1.359375 -0.359375l0 2.515625l3.53125 0l0 1.140625l-3.53125 0l0 3.984375q0 0.84375 0.453125 1.265625q0.453125 0.40625 1.328125 0.40625q0.375 0 0.8125 -0.046875q0.453125 -0.0625 0.9375 -0.1875l0 1.171875zm7.171875 3.390625q-3.609375 -3.34375 -3.609375 -7.375q0 -0.953125 0.1875 -1.890625q0.203125 -0.9375 0.625 -1.875q0.421875 -0.953125 1.125 -1.890625q0.703125 -0.953125 1.703125 -1.890625l0.78125 0.8125q-3.03125 2.984375 -3.03125 6.625q0 1.8125 0.765625 3.5q0.765625 1.671875 2.265625 3.15625l-0.8125 0.828125zm5.703125 -14.921875q3.59375 3.34375 3.59375 7.421875q0 0.84375 -0.171875 1.75q-0.171875 0.90625 -0.59375 1.859375q-0.40625 0.953125 -1.109375 1.921875q-0.6875 0.984375 -1.75 1.96875l-0.796875 -0.796875q1.53125 -1.515625 2.28125 -3.15625q0.75 -1.640625 0.75 -3.4375q0 -3.71875 -3.03125 -6.6875l0.828125 -0.84375z" fill-rule="nonzero"/><path fill="#cfe2f3" d="m89.77165 34.698315l0 0c0 -4.235716 3.433731 -7.669443 7.669449 -7.669443l156.6611 0c2.0340576 0 3.9848328 0.8080292 5.423126 2.2463284c1.4382935 1.4382992 2.246338 3.3890533 2.246338 5.423115l0 30.67686c0 4.235718 -3.4337463 7.669441 -7.669464 7.669441l-156.6611 0c-4.235718 0 -7.669449 -3.4337234 -7.669449 -7.669441z" fill-rule="evenodd"/><path stroke="#000000" stroke-width="2.0" stroke-linejoin="round" stroke-linecap="butt" d="m89.77165 34.698315l0 0c0 -4.235716 3.433731 -7.669443 7.669449 -7.669443l156.6611 0c2.0340576 0 3.9848328 0.8080292 5.423126 2.2463284c1.4382935 1.4382992 2.246338 3.3890533 2.246338 5.423115l0 30.67686c0 4.235718 -3.4337463 7.669441 -7.669464 7.669441l-156.6611 0c-4.235718 0 -7.669449 -3.4337234 -7.669449 -7.669441z" fill-rule="evenodd"/><path fill="#000000" d="m110.26796 48.691116q0 0.734375 -0.28125 1.453125q-0.265625 0.703125 -0.84375 1.28125q-0.5625 0.5625 -1.453125 0.921875q-0.890625 0.34375 -2.140625 0.34375l-1.46875 0l0 4.265625l-1.625 0l0 -11.90625l3.359375 0q0.875 0 1.6875 0.203125q0.8125 0.1875 1.421875 0.625q0.625 0.4375 0.984375 1.140625q0.359375 0.6875 0.359375 1.671875zm-1.6875 0.078125q0 -1.15625 -0.75 -1.765625q-0.75 -0.609375 -2.09375 -0.609375l-1.65625 0l0 4.90625l1.515625 0q1.4375 0 2.203125 -0.625q0.78125 -0.640625 0.78125 -1.90625zm12.272919 8.1875l-1.828125 0l-1.78125 -3.8125q-0.203125 -0.4375 -0.421875 -0.71875q-0.203125 -0.28125 -0.453125 -0.453125q-0.234375 -0.171875 -0.515625 -0.234375q-0.28125 -0.078125 -0.640625 -0.078125l-0.765625 0l0 5.296875l-1.625 0l0 -11.90625l3.1875 0q1.046875 0 1.78125 0.234375q0.75 0.21875 1.21875 0.640625q0.484375 0.40625 0.703125 0.984375q0.234375 0.578125 0.234375 1.28125q0 0.546875 -0.171875 1.046875q-0.15625 0.5 -0.484375 0.90625q-0.3125 0.40625 -0.796875 0.703125q-0.484375 0.28125 -1.09375 0.4375q0.5 0.171875 0.84375 0.609375q0.359375 0.421875 0.71875 1.140625l1.890625 3.921875zm-2.59375 -8.640625q0 -0.953125 -0.609375 -1.421875q-0.59375 -0.484375 -1.671875 -0.484375l-1.53125 0l0 3.9375l1.3125 0q0.578125 0 1.03125 -0.125q0.453125 -0.140625 0.78125 -0.390625q0.328125 -0.265625 0.5 -0.640625q0.1875 -0.375 0.1875 -0.875zm13.022919 2.609375q0 1.609375 -0.375 2.78125q-0.375 1.15625 -1.015625 1.921875q-0.640625 0.75 -1.5 1.125q-0.859375 0.359375 -1.828125 0.359375q-1.140625 0 -2.0 -0.40625q-0.84375 -0.421875 -1.40625 -1.203125q-0.5625 -0.78125 -0.84375 -1.90625q-0.265625 -1.125 -0.265625 -2.53125q0 -1.59375 0.375 -2.75q0.375 -1.171875 1.015625 -1.921875q0.640625 -0.765625 1.5 -1.125q0.859375 -0.375 1.8125 -0.375q1.15625 0 2.0 0.421875q0.859375 0.40625 1.421875 1.1875q0.5625 0.78125 0.828125 1.90625q0.28125 1.109375 0.28125 2.515625zm-1.671875 0.125q0 -1.046875 -0.171875 -1.921875q-0.15625 -0.875 -0.515625 -1.5q-0.34375 -0.625 -0.90625 -0.96875q-0.5625 -0.359375 -1.359375 -0.359375q-0.765625 0 -1.3125 0.375q-0.546875 0.375 -0.90625 1.015625q-0.359375 0.625 -0.53125 1.484375q-0.171875 0.84375 -0.171875 1.796875q0 1.0625 0.15625 1.9375q0.171875 0.859375 0.515625 1.484375q0.359375 0.625 0.90625 0.96875q0.5625 0.34375 1.34375 0.34375q0.765625 0 1.3125 -0.359375q0.5625 -0.375 0.921875 -1.0q0.359375 -0.640625 0.53125 -1.484375q0.1875 -0.859375 0.1875 -1.8125zm12.397919 -6.0l-4.046875 11.90625l-2.1875 0l-3.953125 -11.90625l1.84375 0l2.5625 8.03125l0.734375 2.34375l0.734375 -2.34375l2.578125 -8.03125l1.734375 0zm4.3510437 1.359375l-2.75 0l0 -1.359375l7.125 0l0 1.359375l-2.734375 0l0 9.15625l2.734375 0l0 1.390625l-7.125 0l0 -1.390625l2.75 0l0 -9.15625zm15.022919 7.328125q0 0.84375 -0.34375 1.484375q-0.34375 0.625 -0.96875 1.0625q-0.609375 0.421875 -1.484375 0.625q-0.875 0.203125 -1.921875 0.203125q-0.46875 0 -0.9375 -0.03125q-0.46875 -0.03125 -0.90625 -0.09375q-0.421875 -0.046875 -0.8125 -0.109375q-0.375 -0.078125 -0.6875 -0.171875l0 -1.5625q0.671875 0.25 1.515625 0.40625q0.859375 0.140625 1.953125 0.140625q0.78125 0 1.328125 -0.125q0.5625 -0.125 0.90625 -0.359375q0.34375 -0.25 0.5 -0.59375q0.171875 -0.34375 0.171875 -0.796875q0 -0.46875 -0.28125 -0.8125q-0.265625 -0.34375 -0.703125 -0.609375q-0.4375 -0.28125 -1.0 -0.5q-0.546875 -0.21875 -1.140625 -0.453125q-0.578125 -0.234375 -1.140625 -0.515625q-0.5625 -0.28125 -1.0 -0.65625q-0.4375 -0.375 -0.703125 -0.890625q-0.265625 -0.515625 -0.265625 -1.21875q0 -0.609375 0.25 -1.1875q0.265625 -0.59375 0.796875 -1.046875q0.53125 -0.46875 1.375 -0.75q0.84375 -0.28125 2.015625 -0.28125q0.296875 0 0.640625 0.03125q0.359375 0.015625 0.71875 0.0625q0.359375 0.046875 0.703125 0.125q0.359375 0.0625 0.65625 0.125l0 1.46875q-0.703125 -0.203125 -1.40625 -0.3125q-0.6875 -0.109375 -1.34375 -0.109375q-1.40625 0 -2.0625 0.46875q-0.65625 0.46875 -0.65625 1.25q0 0.484375 0.265625 0.828125q0.28125 0.34375 0.71875 0.625q0.4375 0.265625 1.0 0.5q0.5625 0.21875 1.140625 0.453125q0.578125 0.234375 1.140625 0.515625q0.5625 0.28125 1.0 0.671875q0.4375 0.390625 0.703125 0.90625q0.265625 0.515625 0.265625 1.234375zm5.4916687 -7.328125l-2.75 0l0 -1.359375l7.125 0l0 1.359375l-2.734375 0l0 9.15625l2.734375 0l0 1.390625l-7.125 0l0 -1.390625l2.75 0l0 -9.15625zm15.694794 4.515625q0 1.609375 -0.375 2.78125q-0.375 1.15625 -1.015625 1.921875q-0.640625 0.75 -1.5 1.125q-0.859375 0.359375 -1.828125 0.359375q-1.140625 0 -2.0 -0.40625q-0.84375 -0.421875 -1.40625 -1.203125q-0.5625 -0.78125 -0.84375 -1.90625q-0.265625 -1.125 -0.265625 -2.53125q0 -1.59375 0.375 -2.75q0.375 -1.171875 1.015625 -1.921875q0.640625 -0.765625 1.5 -1.125q0.859375 -0.375 1.8125 -0.375q1.15625 0 2.0 0.421875q0.859375 0.40625 1.421875 1.1875q0.5625 0.78125 0.828125 1.90625q0.28125 1.109375 0.28125 2.515625zm-1.671875 0.125q0 -1.046875 -0.171875 -1.921875q-0.15625 -0.875 -0.515625 -1.5q-0.34375 -0.625 -0.90625 -0.96875q-0.5625 -0.359375 -1.359375 -0.359375q-0.765625 0 -1.3125 0.375q-0.546875 0.375 -0.90625 1.015625q-0.359375 0.625 -0.53125 1.484375q-0.171875 0.84375 -0.171875 1.796875q0 1.0625 0.15625 1.9375q0.171875 0.859375 0.515625 1.484375q0.359375 0.625 0.90625 0.96875q0.5625 0.34375 1.34375 0.34375q0.765625 0 1.3125 -0.359375q0.5625 -0.375 0.921875 -1.0q0.359375 -0.640625 0.53125 -1.484375q0.1875 -0.859375 0.1875 -1.8125zm11.366669 5.90625l-2.125 0l-3.46875 -7.421875l-1.0 -2.390625l0 6.0l0 3.8125l-1.515625 0l0 -11.90625l2.09375 0l3.3125 7.03125l1.1875 2.71875l0 -6.375l0 -3.375l1.515625 0l0 11.90625zm5.3822937 -10.546875l-2.75 0l0 -1.359375l7.125 0l0 1.359375l-2.734375 0l0 9.15625l2.734375 0l0 1.390625l-7.125 0l0 -1.390625l2.75 0l0 -9.15625zm15.132294 10.546875l-2.125 0l-3.46875 -7.421875l-1.0 -2.390625l0 6.0l0 3.8125l-1.515625 0l0 -11.90625l2.09375 0l3.3125 7.03125l1.1875 2.71875l0 -6.375l0 -3.375l1.515625 0l0 11.90625zm10.241669 -9.859375q-0.671875 -0.359375 -1.375 -0.546875q-0.703125 -0.203125 -1.53125 -0.203125q-0.953125 0 -1.6875 0.34375q-0.734375 0.328125 -1.25 0.953125q-0.5 0.609375 -0.765625 1.46875q-0.265625 0.859375 -0.265625 1.90625q0 1.09375 0.21875 1.96875q0.21875 0.859375 0.671875 1.46875q0.46875 0.59375 1.1875 0.921875q0.734375 0.3125 1.75 0.3125q0.171875 0 0.375 -0.015625q0.203125 -0.015625 0.390625 -0.046875q0.203125 -0.03125 0.390625 -0.078125q0.1875 -0.046875 0.328125 -0.109375l0 -3.78125l-2.421875 0l0 -1.34375l4.03125 0l0 6.078125q-0.375 0.1875 -0.796875 0.328125q-0.40625 0.125 -0.84375 0.21875q-0.421875 0.09375 -0.859375 0.125q-0.421875 0.046875 -0.828125 0.046875q-1.21875 0 -2.203125 -0.375q-0.96875 -0.375 -1.65625 -1.125q-0.6875 -0.765625 -1.0625 -1.875q-0.375 -1.125 -0.375 -2.609375q0 -1.453125 0.40625 -2.609375q0.421875 -1.171875 1.15625 -1.96875q0.75 -0.8125 1.78125 -1.234375q1.046875 -0.421875 2.3125 -0.421875q0.796875 0 1.515625 0.140625q0.734375 0.140625 1.40625 0.4375l0 1.625z" fill-rule="nonzero"/><path fill="#000000" fill-opacity="0.0" d="m261.77167 50.036747l38.173218 -0.031497955" fill-rule="evenodd"/><path stroke="#000000" stroke-width="2.0" stroke-linejoin="round" stroke-linecap="butt" d="m261.77167 50.036747l26.173218 -0.021598816" fill-rule="evenodd"/><path fill="#000000" stroke="#000000" stroke-width="2.0" stroke-linecap="butt" d="m287.9476 53.318615l9.073486 -3.310955l-9.078918 -3.2959747z" fill-rule="evenodd"/><path fill="#000000" fill-opacity="0.0" d="m470.77954 50.036747l37.007874 0.03149414" fill-rule="evenodd"/><path stroke="#000000" stroke-width="2.0" stroke-linejoin="round" stroke-linecap="butt" d="m470.77954 50.036747l25.007874 0.021282196" fill-rule="evenodd"/><path fill="#000000" stroke="#000000" stroke-width="2.0" stroke-linecap="butt" d="m495.7846 53.361492l9.0789795 -3.2957382l-9.073364 -3.3111877z" fill-rule="evenodd"/><path fill="#000000" fill-opacity="0.0" d="m593.7874 73.05249l0 25.70079" fill-rule="evenodd"/><path stroke="#000000" stroke-width="2.0" stroke-linejoin="round" stroke-linecap="butt" d="m593.7874 73.05249l0 25.70079" fill-rule="evenodd"/><path fill="#000000" fill-opacity="0.0" d="m593.7874 202.7126l0 45.826767" fill-rule="evenodd"/><path stroke="#000000" stroke-width="2.0" stroke-linejoin="round" stroke-linecap="butt" d="m593.7874 202.7126l0 33.826767" fill-rule="evenodd"/><path fill="#000000" stroke="#000000" stroke-width="2.0" stroke-linecap="butt" d="m590.48395 236.53937l3.3034668 9.076202l3.3034668 -9.076202z" fill-rule="evenodd"/><path fill="#000000" d="m9.771653 50.052494l0 0c0 -11.871948 9.624116 -21.496063 21.496063 -21.496063l0 0c5.701109 0 11.168718 2.2647572 15.20001 6.296051c4.031296 4.031292 6.296051 9.498901 6.296051 15.200012l0 0c0 11.871948 -9.624115 21.49606 -21.496061 21.49606l0 0c-11.871948 0 -21.496063 -9.624111 -21.496063 -21.49606z" fill-rule="evenodd"/><path stroke="#000000" stroke-width="1.0" stroke-linejoin="round" stroke-linecap="butt" d="m9.771653 50.052494l0 0c0 -11.871948 9.624116 -21.496063 21.496063 -21.496063l0 0c5.701109 0 11.168718 2.2647572 15.20001 6.296051c4.031296 4.031292 6.296051 9.498901 6.296051 15.200012l0 0c0 11.871948 -9.624115 21.49606 -21.496061 21.49606l0 0c-11.871948 0 -21.496063 -9.624111 -21.496063 -21.49606z" fill-rule="evenodd"/><path fill="#000000" d="m567.90814 411.88977l0 0c0 -15.055206 11.5841675 -27.259857 25.874023 -27.259857l0 0c6.8621826 0 13.443359 2.8720093 18.295654 7.9842224c4.852356 5.112213 7.578369 12.045868 7.578369 19.275635l0 0c0 15.055176 -11.5842285 27.259827 -25.874023 27.259827l0 0c-14.289856 0 -25.874023 -12.204651 -25.874023 -27.259827z" fill-rule="evenodd"/><path stroke="#000000" stroke-width="1.0" stroke-linejoin="round" stroke-linecap="butt" d="m567.90814 411.88977l0 0c0 -15.055206 11.5841675 -27.259857 25.874023 -27.259857l0 0c6.8621826 0 13.443359 2.8720093 18.295654 7.9842224c4.852356 5.112213 7.578369 12.045868 7.578369 19.275635l0 0c0 15.055176 -11.5842285 27.259827 -25.874023 27.259827l0 0c-14.289856 0 -25.874023 -12.204651 -25.874023 -27.259827z" fill-rule="evenodd"/><path fill="#000000" fill-opacity="0.0" d="m593.78217 354.65616l0 29.984253" fill-rule="evenodd"/><path stroke="#000000" stroke-width="2.0" stroke-linejoin="round" stroke-linecap="butt" d="m593.78217 354.65616l0 17.984253" fill-rule="evenodd"/><path fill="#000000" stroke="#000000" stroke-width="2.0" stroke-linecap="butt" d="m590.4787 372.6404l3.3034668 9.076202l3.3034668 -9.076202z" fill-rule="evenodd"/><path fill="#000000" fill-opacity="0.0" d="m52.76378 50.052494l37.007874 0" fill-rule="evenodd"/><path stroke="#000000" stroke-width="2.0" stroke-linejoin="round" stroke-linecap="butt" d="m52.76378 50.052494l25.007874 0" fill-rule="evenodd"/><path fill="#000000" stroke="#000000" stroke-width="2.0" stroke-linecap="butt" d="m77.77165 53.355957l9.076195 -3.303463l-9.076195 -3.3034668z" fill-rule="evenodd"/><path fill="#cfe2f3" d="m298.77954 34.698315l0 0c0 -4.235716 3.4337158 -7.669443 7.6694336 -7.669443l156.6611 0c2.0340576 0 3.9848328 0.8080292 5.423126 2.2463284c1.4382935 1.4382992 2.246338 3.3890533 2.246338 5.423115l0 30.67686c0 4.235718 -3.4337463 7.669441 -7.669464 7.669441l-156.6611 0c-4.235718 0 -7.6694336 -3.4337234 -7.6694336 -7.669441z" fill-rule="evenodd"/><path stroke="#000000" stroke-width="2.0" stroke-linejoin="round" stroke-linecap="butt" d="m298.77954 34.698315l0 0c0 -4.235716 3.4337158 -7.669443 7.6694336 -7.669443l156.6611 0c2.0340576 0 3.9848328 0.8080292 5.423126 2.2463284c1.4382935 1.4382992 2.246338 3.3890533 2.246338 5.423115l0 30.67686c0 4.235718 -3.4337463 7.669441 -7.669464 7.669441l-156.6611 0c-4.235718 0 -7.6694336 -3.4337234 -7.6694336 -7.669441z" fill-rule="evenodd"/><path fill="#000000" d="m357.95712 53.73799q0 0.84375 -0.34375 1.484375q-0.34375 0.625 -0.96875 1.0625q-0.609375 0.421875 -1.484375 0.625q-0.875 0.203125 -1.921875 0.203125q-0.46875 0 -0.9375 -0.03125q-0.46875 -0.03125 -0.90625 -0.09375q-0.421875 -0.046875 -0.8125 -0.109375q-0.375 -0.078125 -0.6875 -0.171875l0 -1.5625q0.671875 0.25 1.515625 0.40625q0.859375 0.140625 1.953125 0.140625q0.78125 0 1.328125 -0.125q0.5625 -0.125 0.90625 -0.359375q0.34375 -0.25 0.5 -0.59375q0.171875 -0.34375 0.171875 -0.796875q0 -0.46875 -0.28125 -0.8125q-0.265625 -0.34375 -0.703125 -0.609375q-0.4375 -0.28125 -1.0 -0.5q-0.546875 -0.21875 -1.140625 -0.453125q-0.578125 -0.234375 -1.140625 -0.515625q-0.5625 -0.28125 -1.0 -0.65625q-0.4375 -0.375 -0.703125 -0.890625q-0.265625 -0.515625 -0.265625 -1.21875q0 -0.609375 0.25 -1.1875q0.265625 -0.59375 0.796875 -1.046875q0.53125 -0.46875 1.375 -0.75q0.84375 -0.28125 2.015625 -0.28125q0.296875 0 0.640625 0.03125q0.359375 0.015625 0.71875 0.0625q0.359375 0.046875 0.703125 0.125q0.359375 0.0625 0.65625 0.125l0 1.46875q-0.703125 -0.203125 -1.40625 -0.3125q-0.6875 -0.109375 -1.34375 -0.109375q-1.40625 0 -2.0625 0.46875q-0.65625 0.46875 -0.65625 1.25q0 0.484375 0.265625 0.828125q0.28125 0.34375 0.71875 0.625q0.4375 0.265625 1.0 0.5q0.5625 0.21875 1.140625 0.453125q0.578125 0.234375 1.140625 0.515625q0.5625 0.28125 1.0 0.671875q0.4375 0.390625 0.703125 0.90625q0.265625 0.515625 0.265625 1.234375zm10.647919 -7.296875l-3.515625 0l0 10.515625l-1.640625 0l0 -10.515625l-3.53125 0l0 -1.390625l8.6875 0l0 1.390625zm10.960419 10.515625l-1.765625 0l-0.84375 -2.59375l-4.953125 0l-0.828125 2.59375l-1.6875 0l3.953125 -11.90625l2.21875 0l3.90625 11.90625zm-3.0625 -4.046875l-2.015625 -6.359375l-2.015625 6.359375l4.03125 0zm12.319794 -5.8125q-0.671875 -0.359375 -1.375 -0.546875q-0.703125 -0.203125 -1.53125 -0.203125q-0.953125 0 -1.6875 0.34375q-0.734375 0.328125 -1.25 0.953125q-0.5 0.609375 -0.765625 1.46875q-0.265625 0.859375 -0.265625 1.90625q0 1.09375 0.21875 1.96875q0.21875 0.859375 0.671875 1.46875q0.46875 0.59375 1.1875 0.921875q0.734375 0.3125 1.75 0.3125q0.171875 0 0.375 -0.015625q0.203125 -0.015625 0.390625 -0.046875q0.203125 -0.03125 0.390625 -0.078125q0.1875 -0.046875 0.328125 -0.109375l0 -3.78125l-2.421875 0l0 -1.34375l4.03125 0l0 6.078125q-0.375 0.1875 -0.796875 0.328125q-0.40625 0.125 -0.84375 0.21875q-0.421875 0.09375 -0.859375 0.125q-0.421875 0.046875 -0.828125 0.046875q-1.21875 0 -2.203125 -0.375q-0.96875 -0.375 -1.65625 -1.125q-0.6875 -0.765625 -1.0625 -1.875q-0.375 -1.125 -0.375 -2.609375q0 -1.453125 0.40625 -2.609375q0.421875 -1.171875 1.15625 -1.96875q0.75 -0.8125 1.78125 -1.234375q1.046875 -0.421875 2.3125 -0.421875q0.796875 0 1.515625 0.140625q0.734375 0.140625 1.40625 0.4375l0 1.625zm5.3979187 -0.6875l-2.75 0l0 -1.359375l7.125 0l0 1.359375l-2.734375 0l0 9.15625l2.734375 0l0 1.390625l-7.125 0l0 -1.390625l2.75 0l0 -9.15625zm15.132294 10.546875l-2.125 0l-3.46875 -7.421875l-1.0 -2.390625l0 6.0l0 3.8125l-1.515625 0l0 -11.90625l2.09375 0l3.3125 7.03125l1.1875 2.71875l0 -6.375l0 -3.375l1.515625 0l0 11.90625zm10.241669 -9.859375q-0.671875 -0.359375 -1.375 -0.546875q-0.703125 -0.203125 -1.53125 -0.203125q-0.953125 0 -1.6875 0.34375q-0.734375 0.328125 -1.25 0.953125q-0.5 0.609375 -0.765625 1.46875q-0.265625 0.859375 -0.265625 1.90625q0 1.09375 0.21875 1.96875q0.21875 0.859375 0.671875 1.46875q0.46875 0.59375 1.1875 0.921875q0.734375 0.3125 1.75 0.3125q0.171875 0 0.375 -0.015625q0.203125 -0.015625 0.390625 -0.046875q0.203125 -0.03125 0.390625 -0.078125q0.1875 -0.046875 0.328125 -0.109375l0 -3.78125l-2.421875 0l0 -1.34375l4.03125 0l0 6.078125q-0.375 0.1875 -0.796875 0.328125q-0.40625 0.125 -0.84375 0.21875q-0.421875 0.09375 -0.859375 0.125q-0.421875 0.046875 -0.828125 0.046875q-1.21875 0 -2.203125 -0.375q-0.96875 -0.375 -1.65625 -1.125q-0.6875 -0.765625 -1.0625 -1.875q-0.375 -1.125 -0.375 -2.609375q0 -1.453125 0.40625 -2.609375q0.421875 -1.171875 1.15625 -1.96875q0.75 -0.8125 1.78125 -1.234375q1.046875 -0.421875 2.3125 -0.421875q0.796875 0 1.515625 0.140625q0.734375 0.140625 1.40625 0.4375l0 1.625z" fill-rule="nonzero"/><path fill="#cfe2f3" d="m507.7874 34.706192l0 0c0 -4.2357197 3.4337158 -7.669447 7.6694336 -7.669447l156.66113 0c2.0340576 0 3.9848022 0.8080292 5.4230957 2.2463284c1.4382935 1.4383011 2.246338 3.3890533 2.246338 5.4231186l0 30.676857c0 4.235718 -3.4337158 7.669441 -7.6694336 7.669441l-156.66113 0c-4.235718 0 -7.6694336 -3.4337234 -7.6694336 -7.669441z" fill-rule="evenodd"/><path stroke="#000000" stroke-width="2.0" stroke-linejoin="round" stroke-linecap="butt" d="m507.7874 34.706192l0 0c0 -4.2357197 3.4337158 -7.669447 7.6694336 -7.669447l156.66113 0c2.0340576 0 3.9848022 0.8080292 5.4230957 2.2463284c1.4382935 1.4383011 2.246338 3.3890533 2.246338 5.4231186l0 30.676857c0 4.235718 -3.4337158 7.669441 -7.6694336 7.669441l-156.66113 0c-4.235718 0 -7.6694336 -3.4337234 -7.6694336 -7.669441z" fill-rule="evenodd"/><path fill="#000000" d="m567.46497 56.96462l-1.828125 0l-1.78125 -3.8125q-0.203125 -0.4375 -0.421875 -0.71875q-0.203125 -0.28125 -0.453125 -0.453125q-0.234375 -0.171875 -0.515625 -0.234375q-0.28125 -0.078125 -0.640625 -0.078125l-0.765625 0l0 5.296875l-1.625 0l0 -11.90625l3.1875 0q1.046875 0 1.78125 0.234375q0.75 0.21875 1.21875 0.640625q0.484375 0.40625 0.703125 0.984375q0.234375 0.578125 0.234375 1.28125q0 0.546875 -0.171875 1.046875q-0.15625 0.5 -0.484375 0.90625q-0.3125 0.40625 -0.796875 0.703125q-0.484375 0.28125 -1.09375 0.4375q0.5 0.171875 0.84375 0.609375q0.359375 0.421875 0.71875 1.140625l1.890625 3.921875zm-2.59375 -8.640625q0 -0.953125 -0.609375 -1.421875q-0.59375 -0.484375 -1.671875 -0.484375l-1.53125 0l0 3.9375l1.3125 0q0.578125 0 1.03125 -0.125q0.453125 -0.140625 0.78125 -0.390625q0.328125 -0.265625 0.5 -0.640625q0.1875 -0.375 0.1875 -0.875zm12.554199 4.5q0 0.984375 -0.28125 1.78125q-0.28125 0.796875 -0.828125 1.359375q-0.53125 0.546875 -1.3125 0.859375q-0.78125 0.296875 -1.78125 0.296875q-1.109375 0 -1.890625 -0.28125q-0.78125 -0.296875 -1.265625 -0.828125q-0.484375 -0.53125 -0.703125 -1.28125q-0.21875 -0.75 -0.21875 -1.671875l0 -8.0l1.609375 0l0 7.875q0 0.703125 0.125 1.234375q0.140625 0.53125 0.4375 0.890625q0.3125 0.34375 0.78125 0.53125q0.484375 0.1875 1.171875 0.1875q1.296875 0 1.90625 -0.75q0.625 -0.75 0.625 -2.109375l0 -7.859375l1.625 0l0 7.765625zm10.163513 4.140625l-2.125 0l-3.46875 -7.421875l-1.0 -2.390625l0 6.0l0 3.8125l-1.515625 0l0 -11.90625l2.09375 0l3.3125 7.03125l1.1875 2.71875l0 -6.375l0 -3.375l1.515625 0l0 11.90625zm10.257324 0l-2.125 0l-3.46875 -7.421875l-1.0 -2.390625l0 6.0l0 3.8125l-1.515625 0l0 -11.90625l2.09375 0l3.3125 7.03125l1.1875 2.71875l0 -6.375l0 -3.375l1.515625 0l0 11.90625zm5.382263 -10.546875l-2.75 0l0 -1.359375l7.125 0l0 1.359375l-2.734375 0l0 9.15625l2.734375 0l0 1.390625l-7.125 0l0 -1.390625l2.75 0l0 -9.15625zm15.132324 10.546875l-2.125 0l-3.46875 -7.421875l-1.0 -2.390625l0 6.0l0 3.8125l-1.515625 0l0 -11.90625l2.09375 0l3.3125 7.03125l1.1875 2.71875l0 -6.375l0 -3.375l1.515625 0l0 11.90625zm10.241638 -9.859375q-0.671875 -0.359375 -1.375 -0.546875q-0.703125 -0.203125 -1.53125 -0.203125q-0.953125 0 -1.6875 0.34375q-0.734375 0.328125 -1.25 0.953125q-0.5 0.609375 -0.765625 1.46875q-0.265625 0.859375 -0.265625 1.90625q0 1.09375 0.21875 1.96875q0.21875 0.859375 0.671875 1.46875q0.46875 0.59375 1.1875 0.921875q0.734375 0.3125 1.75 0.3125q0.171875 0 0.375 -0.015625q0.203125 -0.015625 0.390625 -0.046875q0.203125 -0.03125 0.390625 -0.078125q0.1875 -0.046875 0.328125 -0.109375l0 -3.78125l-2.421875 0l0 -1.34375l4.03125 0l0 6.078125q-0.375 0.1875 -0.796875 0.328125q-0.40625 0.125 -0.84375 0.21875q-0.421875 0.09375 -0.859375 0.125q-0.421875 0.046875 -0.828125 0.046875q-1.21875 0 -2.203125 -0.375q-0.96875 -0.375 -1.65625 -1.125q-0.6875 -0.765625 -1.0625 -1.875q-0.375 -1.125 -0.375 -2.609375q0 -1.453125 0.40625 -2.609375q0.421875 -1.171875 1.15625 -1.96875q0.75 -0.8125 1.78125 -1.234375q1.046875 -0.421875 2.3125 -0.421875q0.796875 0 1.515625 0.140625q0.734375 0.140625 1.40625 0.4375l0 1.625z" fill-rule="nonzero"/><path fill="#cfe2f3" d="m507.7874 164.35841l0 0c0 -4.2357025 3.4337158 -7.6694336 7.6694336 -7.6694336l156.66113 0c2.0340576 0 3.9848022 0.8080292 5.4230957 2.2463226c1.4382935 1.4383087 2.246338 3.3890533 2.246338 5.423111l0 30.676865c0 4.235718 -3.4337158 7.669449 -7.6694336 7.669449l-156.66113 0c-4.235718 0 -7.6694336 -3.433731 -7.6694336 -7.669449z" fill-rule="evenodd"/><path stroke="#000000" stroke-width="2.0" stroke-linejoin="round" stroke-linecap="butt" d="m507.7874 164.35841l0 0c0 -4.2357025 3.4337158 -7.6694336 7.6694336 -7.6694336l156.66113 0c2.0340576 0 3.9848022 0.8080292 5.4230957 2.2463226c1.4382935 1.4383087 2.246338 3.3890533 2.246338 5.423111l0 30.676865c0 4.235718 -3.4337158 7.669449 -7.6694336 7.669449l-156.66113 0c-4.235718 0 -7.6694336 -3.433731 -7.6694336 -7.669449z" fill-rule="evenodd"/><path fill="#000000" d="m561.83636 183.3981q0 0.84375 -0.34375 1.484375q-0.34375 0.625 -0.96875 1.0625q-0.609375 0.421875 -1.484375 0.625q-0.875 0.203125 -1.921875 0.203125q-0.46875 0 -0.9375 -0.03125q-0.46875 -0.03125 -0.90625 -0.09375q-0.421875 -0.046875 -0.8125 -0.109375q-0.375 -0.078125 -0.6875 -0.171875l0 -1.5625q0.671875 0.25 1.515625 0.40625q0.859375 0.140625 1.953125 0.140625q0.78125 0 1.328125 -0.125q0.5625 -0.125 0.90625 -0.359375q0.34375 -0.25 0.5 -0.59375q0.171875 -0.34375 0.171875 -0.796875q0 -0.46875 -0.28125 -0.8125q-0.265625 -0.34375 -0.703125 -0.609375q-0.4375 -0.28125 -1.0 -0.5q-0.546875 -0.21875 -1.140625 -0.453125q-0.578125 -0.234375 -1.140625 -0.515625q-0.5625 -0.28125 -1.0 -0.65625q-0.4375 -0.375 -0.703125 -0.890625q-0.265625 -0.515625 -0.265625 -1.21875q0 -0.609375 0.25 -1.1875q0.265625 -0.59375 0.796875 -1.046875q0.53125 -0.46875 1.375 -0.75q0.84375 -0.28125 2.015625 -0.28125q0.296875 0 0.640625 0.03125q0.359375 0.015625 0.71875 0.0625q0.359375 0.046875 0.703125 0.125q0.359375 0.0625 0.65625 0.125l0 1.46875q-0.703125 -0.203125 -1.40625 -0.3125q-0.6875 -0.109375 -1.34375 -0.109375q-1.40625 0 -2.0625 0.46875q-0.65625 0.46875 -0.65625 1.25q0 0.484375 0.265625 0.828125q0.28125 0.34375 0.71875 0.625q0.4375 0.265625 1.0 0.5q0.5625 0.21875 1.140625 0.453125q0.578125 0.234375 1.140625 0.515625q0.5625 0.28125 1.0 0.671875q0.4375 0.390625 0.703125 0.90625q0.265625 0.515625 0.265625 1.234375zm10.647888 -7.296875l-3.515625 0l0 10.515625l-1.640625 0l0 -10.515625l-3.53125 0l0 -1.390625l8.6875 0l0 1.390625zm10.538574 4.484375q0 1.609375 -0.375 2.78125q-0.375 1.15625 -1.015625 1.921875q-0.640625 0.75 -1.5 1.125q-0.859375 0.359375 -1.828125 0.359375q-1.140625 0 -2.0 -0.40625q-0.84375 -0.421875 -1.40625 -1.203125q-0.5625 -0.78125 -0.84375 -1.90625q-0.265625 -1.125 -0.265625 -2.53125q0 -1.59375 0.375 -2.75q0.375 -1.171875 1.015625 -1.921875q0.640625 -0.765625 1.5 -1.125q0.859375 -0.375 1.8125 -0.375q1.15625 0 2.0 0.421875q0.859375 0.40625 1.421875 1.1875q0.5625 0.78125 0.828125 1.90625q0.28125 1.109375 0.28125 2.515625zm-1.671875 0.125q0 -1.046875 -0.171875 -1.921875q-0.15625 -0.875 -0.515625 -1.5q-0.34375 -0.625 -0.90625 -0.96875q-0.5625 -0.359375 -1.359375 -0.359375q-0.765625 0 -1.3125 0.375q-0.546875 0.375 -0.90625 1.015625q-0.359375 0.625 -0.53125 1.484375q-0.171875 0.84375 -0.171875 1.796875q0 1.0625 0.15625 1.9375q0.171875 0.859375 0.515625 1.484375q0.359375 0.625 0.90625 0.96875q0.5625 0.34375 1.34375 0.34375q0.765625 0 1.3125 -0.359375q0.5625 -0.375 0.921875 -1.0q0.359375 -0.640625 0.53125 -1.484375q0.1875 -0.859375 0.1875 -1.8125zm11.429138 -2.359375q0 0.734375 -0.28125 1.453125q-0.265625 0.703125 -0.84375 1.28125q-0.5625 0.5625 -1.453125 0.921875q-0.890625 0.34375 -2.140625 0.34375l-1.46875 0l0 4.265625l-1.625 0l0 -11.90625l3.359375 0q0.875 0 1.6875 0.203125q0.8125 0.1875 1.421875 0.625q0.625 0.4375 0.984375 1.140625q0.359375 0.6875 0.359375 1.671875zm-1.6875 0.078125q0 -1.15625 -0.75 -1.765625q-0.75 -0.609375 -2.09375 -0.609375l-1.65625 0l0 4.90625l1.515625 0q1.4375 0 2.203125 -0.625q0.78125 -0.640625 0.78125 -1.90625zm11.944824 -0.078125q0 0.734375 -0.28125 1.453125q-0.265625 0.703125 -0.84375 1.28125q-0.5625 0.5625 -1.453125 0.921875q-0.890625 0.34375 -2.140625 0.34375l-1.46875 0l0 4.265625l-1.625 0l0 -11.90625l3.359375 0q0.875 0 1.6875 0.203125q0.8125 0.1875 1.421875 0.625q0.625 0.4375 0.984375 1.140625q0.359375 0.6875 0.359375 1.671875zm-1.6875 0.078125q0 -1.15625 -0.75 -1.765625q-0.75 -0.609375 -2.09375 -0.609375l-1.65625 0l0 4.90625l1.515625 0q1.4375 0 2.203125 -0.625q0.78125 -0.640625 0.78125 -1.90625zm7.007263 -2.359375l-2.75 0l0 -1.359375l7.125 0l0 1.359375l-2.734375 0l0 9.15625l2.734375 0l0 1.390625l-7.125 0l0 -1.390625l2.75 0l0 -9.15625zm15.132324 10.546875l-2.125 0l-3.46875 -7.421875l-1.0 -2.390625l0 6.0l0 3.8125l-1.515625 0l0 -11.90625l2.09375 0l3.3125 7.03125l1.1875 2.71875l0 -6.375l0 -3.375l1.515625 0l0 11.90625zm10.241638 -9.859375q-0.671875 -0.359375 -1.375 -0.546875q-0.703125 -0.203125 -1.53125 -0.203125q-0.953125 0 -1.6875 0.34375q-0.734375 0.328125 -1.25 0.953125q-0.5 0.609375 -0.765625 1.46875q-0.265625 0.859375 -0.265625 1.90625q0 1.09375 0.21875 1.96875q0.21875 0.859375 0.671875 1.46875q0.46875 0.59375 1.1875 0.921875q0.734375 0.3125 1.75 0.3125q0.171875 0 0.375 -0.015625q0.203125 -0.015625 0.390625 -0.046875q0.203125 -0.03125 0.390625 -0.078125q0.1875 -0.046875 0.328125 -0.109375l0 -3.78125l-2.421875 0l0 -1.34375l4.03125 0l0 6.078125q-0.375 0.1875 -0.796875 0.328125q-0.40625 0.125 -0.84375 0.21875q-0.421875 0.09375 -0.859375 0.125q-0.421875 0.046875 -0.828125 0.046875q-1.21875 0 -2.203125 -0.375q-0.96875 -0.375 -1.65625 -1.125q-0.6875 -0.765625 -1.0625 -1.875q-0.375 -1.125 -0.375 -2.609375q0 -1.453125 0.40625 -2.609375q0.421875 -1.171875 1.15625 -1.96875q0.75 -0.8125 1.78125 -1.234375q1.046875 -0.421875 2.3125 -0.421875q0.796875 0 1.515625 0.140625q0.734375 0.140625 1.40625 0.4375l0 1.625z" fill-rule="nonzero"/><path fill="#cfe2f3" d="m507.7874 256.2088l0 0c0 -4.2357025 3.4337158 -7.6694336 7.6694336 -7.6694336l156.66113 0c2.0340576 0 3.9848022 0.8080292 5.4230957 2.246338c1.4382935 1.4382935 2.246338 3.3890533 2.246338 5.4230957l0 30.67688c0 4.235718 -3.4337158 7.6694336 -7.6694336 7.6694336l-156.66113 0c-4.235718 0 -7.6694336 -3.4337158 -7.6694336 -7.6694336z" fill-rule="evenodd"/><path stroke="#000000" stroke-width="2.0" stroke-linejoin="round" stroke-linecap="butt" d="m507.7874 256.2088l0 0c0 -4.2357025 3.4337158 -7.6694336 7.6694336 -7.6694336l156.66113 0c2.0340576 0 3.9848022 0.8080292 5.4230957 2.246338c1.4382935 1.4382935 2.246338 3.3890533 2.246338 5.4230957l0 30.67688c0 4.235718 -3.4337158 7.6694336 -7.6694336 7.6694336l-156.66113 0c-4.235718 0 -7.6694336 -3.4337158 -7.6694336 -7.6694336z" fill-rule="evenodd"/><path fill="#000000" d="m551.96967 267.95163l-3.515625 0l0 10.515625l-1.640625 0l0 -10.515625l-3.53125 0l0 -1.390625l8.6875 0l0 1.390625zm9.382324 10.515625l-6.765625 0l0 -11.90625l6.765625 0l0 1.359375l-5.140625 0l0 3.703125l4.953125 0l0 1.359375l-4.953125 0l0 4.09375l5.140625 0l0 1.390625zm11.241638 0l-1.828125 0l-1.78125 -3.8125q-0.203125 -0.4375 -0.421875 -0.71875q-0.203125 -0.28125 -0.453125 -0.453125q-0.234375 -0.171875 -0.515625 -0.234375q-0.28125 -0.078125 -0.640625 -0.078125l-0.765625 0l0 5.296875l-1.625 0l0 -11.90625l3.1875 0q1.046875 0 1.78125 0.234375q0.75 0.21875 1.21875 0.640625q0.484375 0.40625 0.703125 0.984375q0.234375 0.578125 0.234375 1.28125q0 0.546875 -0.171875 1.046875q-0.15625 0.5 -0.484375 0.90625q-0.3125 0.40625 -0.796875 0.703125q-0.484375 0.28125 -1.09375 0.4375q0.5 0.171875 0.84375 0.609375q0.359375 0.421875 0.71875 1.140625l1.890625 3.921875zm-2.59375 -8.640625q0 -0.953125 -0.609375 -1.421875q-0.59375 -0.484375 -1.671875 -0.484375l-1.53125 0l0 3.9375l1.3125 0q0.578125 0 1.03125 -0.125q0.453125 -0.140625 0.78125 -0.390625q0.328125 -0.265625 0.5 -0.640625q0.1875 -0.375 0.1875 -0.875zm13.085449 8.640625l-1.59375 0l-0.234375 -7.421875l-0.09375 -2.859375l-0.5625 1.65625l-1.75 4.75l-1.125 0l-1.671875 -4.5625l-0.5625 -1.84375l-0.03125 2.984375l-0.203125 7.296875l-1.53125 0l0.578125 -11.90625l1.921875 0l1.609375 4.484375l0.515625 1.515625l0.5 -1.515625l1.6875 -4.484375l1.96875 0l0.578125 11.90625zm4.757263 -10.546875l-2.75 0l0 -1.359375l7.125 0l0 1.359375l-2.734375 0l0 9.15625l2.734375 0l0 1.390625l-7.125 0l0 -1.390625l2.75 0l0 -9.15625zm15.132324 10.546875l-2.125 0l-3.46875 -7.421875l-1.0 -2.390625l0 6.0l0 3.8125l-1.515625 0l0 -11.90625l2.09375 0l3.3125 7.03125l1.1875 2.71875l0 -6.375l0 -3.375l1.515625 0l0 11.90625zm11.241638 0l-1.765625 0l-0.84375 -2.59375l-4.953125 0l-0.828125 2.59375l-1.6875 0l3.953125 -11.90625l2.21875 0l3.90625 11.90625zm-3.0625 -4.046875l-2.015625 -6.359375l-2.015625 6.359375l4.03125 0zm12.616699 -6.46875l-3.515625 0l0 10.515625l-1.640625 0l0 -10.515625l-3.53125 0l0 -1.390625l8.6875 0l0 1.390625zm9.382263 10.515625l-6.765625 0l0 -11.90625l6.765625 0l0 1.359375l-5.140625 0l0 3.703125l4.953125 0l0 1.359375l-4.953125 0l0 4.09375l5.140625 0l0 1.390625zm11.257324 -6.078125q0 0.84375 -0.140625 1.640625q-0.125 0.78125 -0.421875 1.453125q-0.28125 0.671875 -0.75 1.21875q-0.46875 0.546875 -1.140625 0.953125q-0.671875 0.390625 -1.5625 0.609375q-0.890625 0.203125 -2.03125 0.203125l-2.546875 0l0 -11.90625l3.0625 0q2.78125 0 4.15625 1.4375q1.375 1.4375 1.375 4.390625zm-1.703125 0.109375q0 -1.265625 -0.234375 -2.140625q-0.234375 -0.875 -0.71875 -1.40625q-0.484375 -0.546875 -1.21875 -0.78125q-0.734375 -0.25 -1.703125 -0.25l-1.40625 0l0 9.140625l1.21875 0q4.0625 0 4.0625 -4.5625z" fill-rule="nonzero"/><path fill="#000000" fill-opacity="0.0" d="m707.2493 287.40158l0 124.50394l-87.590515 0" fill-rule="evenodd"/><path stroke="#000000" stroke-width="2.0" stroke-linejoin="round" stroke-linecap="butt" d="m707.2493 287.40158l0 124.50394l-75.590515 0" fill-rule="evenodd"/><path fill="#000000" stroke="#000000" stroke-width="2.0" stroke-linecap="butt" d="m631.6588 408.60205l-9.076233 3.3034668l9.076233 3.3034668z" fill-rule="evenodd"/><path fill="#000000" fill-opacity="0.0" d="m721.2336 98.74016l0 188.66142l-27.968506 0l0 -188.66142z" fill-rule="evenodd"/><path stroke="#000000" stroke-width="1.0" stroke-linejoin="round" stroke-linecap="butt" stroke-dasharray="4.0,3.0" d="m721.2336 98.74016l0 188.66142l-27.968506 0l0 -188.66142z" fill-rule="evenodd"/><path fill="#000000" d="m708.1081 117.82087l0 -2.3125l1.125 0l0 3.6875l-6.703125 0l0 2.34375l-1.140625 0l0 -6.296875l1.140625 0l0 2.578125l5.578125 0zm4.421875 0.484375q0 0.21875 -0.09375 0.40625q-0.078125 0.203125 -0.234375 0.34375q-0.140625 0.15625 -0.328125 0.234375q-0.1875 0.078125 -0.421875 0.078125q-0.21875 0 -0.421875 -0.078125q-0.1875 -0.078125 -0.34375 -0.234375q-0.140625 -0.140625 -0.21875 -0.34375q-0.078125 -0.1875 -0.078125 -0.40625q0 -0.234375 0.078125 -0.4375q0.078125 -0.1875 0.21875 -0.328125q0.15625 -0.140625 0.34375 -0.234375q0.203125 -0.078125 0.421875 -0.078125q0.234375 0 0.421875 0.078125q0.1875 0.09375 0.328125 0.234375q0.15625 0.140625 0.234375 0.328125q0.09375 0.203125 0.09375 0.4375zm-3.296875 5.640625l0 1.21875l-1.265625 0.046875q0.40625 0.34375 0.671875 0.65625q0.28125 0.328125 0.4375 0.640625q0.171875 0.3125 0.234375 0.625q0.0625 0.328125 0.0625 0.671875q0 1.2031174 -0.71875 1.8281174q-0.703125 0.625 -2.140625 0.625l-5.125 0l0 -1.359375l5.015625 0q0.921875 0 1.359375 -0.34375q0.4375 -0.34375 0.4375 -1.0312424q0 -0.25 -0.078125 -0.484375q-0.0625 -0.234375 -0.25 -0.5q-0.1875 -0.25 -0.5 -0.5625q-0.3125 -0.296875 -0.78125 -0.671875l-5.203125 0l0 -1.359375l7.84375 0zm-5.703125 15.015617q-0.40625 0 -0.734375 -0.140625q-0.328125 -0.140625 -0.59375 -0.390625q-0.25 -0.234375 -0.4375 -0.5625q-0.171875 -0.3125 -0.296875 -0.6875q-0.109375 -0.359375 -0.15625 -0.75q-0.0625 -0.375 -0.0625 -0.734375q0 -0.796875 0.078125 -1.46875q0.0625 -0.671875 0.21875 -1.3125l1.25 0q-0.1875 0.6875 -0.296875 1.359375q-0.09375 0.6875 -0.09375 1.359375q0 0.984375 0.265625 1.453125q0.265625 0.46875 0.75 0.46875q0.21875 0 0.375 -0.078125q0.171875 -0.078125 0.328125 -0.28125q0.15625 -0.1875 0.3125 -0.59375q0.171875 -0.40625 0.375 -1.125q0.15625 -0.53125 0.359375 -0.984375q0.203125 -0.4375 0.46875 -0.765625q0.28125 -0.328125 0.640625 -0.515625q0.375 -0.1875 0.875 -0.1875q0.328125 0 0.71875 0.140625q0.390625 0.15625 0.71875 0.515625q0.34375 0.375 0.5625 1.0q0.21875 0.625 0.21875 1.5625q0 0.46875 -0.046875 1.03125q-0.046875 0.5625 -0.171875 1.171875l-1.21875 0q0.15625 -0.640625 0.234375 -1.21875q0.078125 -0.578125 0.078125 -1.0q0 -0.5 -0.078125 -0.859375q-0.078125 -0.34375 -0.21875 -0.5625q-0.140625 -0.203125 -0.328125 -0.296875q-0.171875 -0.09375 -0.390625 -0.09375q-0.203125 0 -0.375 0.078125q-0.171875 0.078125 -0.34375 0.296875q-0.15625 0.234375 -0.3125 0.625q-0.15625 0.40625 -0.34375 1.046875q-0.203125 0.6875 -0.4375 1.15625q-0.21875 0.484375 -0.5 0.78125q-0.265625 0.296875 -0.609375 0.421875q-0.34375 0.140625 -0.78125 0.140625zm-2.03125 8.90625q-0.125 -0.46875 -0.171875 -0.96875q-0.046875 -0.484375 -0.046875 -0.984375q0 -1.484375 0.671875 -2.21875q0.671875 -0.71875 2.046875 -0.71875l4.09375 0l0 -2.1875l1.140625 0l0 2.1875l2.15625 0l0.359375 1.359375l-2.515625 0l0 3.53125l-1.140625 0l0 -3.53125l-3.984375 0q-0.84375 0 -1.265625 0.453125q-0.40625 0.453125 -0.40625 1.328125q0 0.375 0.046875 0.8125q0.0625 0.453125 0.1875 0.9375l-1.171875 0zm-0.109375 7.515625l1.0625 -0.03125q-0.640625 -0.640625 -0.921875 -1.3125q-0.28125 -0.65625 -0.28125 -1.375q0 -0.671875 0.171875 -1.15625q0.171875 -0.46875 0.46875 -0.78125q0.3125 -0.3125 0.71875 -0.453125q0.40625 -0.140625 0.875 -0.140625q1.1875 0 1.84375 0.875q0.671875 0.875 0.671875 2.59375l0 1.625l0.6875 0q0.703125 0 1.109375 -0.453125q0.421875 -0.4375 0.421875 -1.34375q0 -0.671875 -0.15625 -1.3125q-0.140625 -0.640625 -0.40625 -1.328125l1.21875 0q0.09375 0.25 0.1875 0.5625q0.09375 0.328125 0.15625 0.671875q0.078125 0.359375 0.109375 0.734375q0.046875 0.390625 0.046875 0.78125q0 0.703125 -0.15625 1.265625q-0.15625 0.578125 -0.484375 0.96875q-0.3125 0.40625 -0.796875 0.609375q-0.484375 0.21875 -1.140625 0.21875l-5.40625 0l0 -1.21875zm3.578125 -0.15625l0 -1.71875q0 -0.515625 -0.109375 -0.890625q-0.09375 -0.359375 -0.28125 -0.59375q-0.1875 -0.234375 -0.453125 -0.34375q-0.265625 -0.109375 -0.59375 -0.109375q-0.21875 0 -0.4375 0.0625q-0.203125 0.078125 -0.359375 0.234375q-0.15625 0.15625 -0.25 0.40625q-0.09375 0.25 -0.09375 0.609375q0 0.46875 0.28125 1.0625q0.28125 0.609375 0.90625 1.28125l1.390625 0zm4.265625 3.90625l0 1.21875l-1.265625 0.046875q0.40625 0.34375 0.671875 0.65625q0.28125 0.328125 0.4375 0.640625q0.171875 0.3125 0.234375 0.625q0.0625 0.328125 0.0625 0.671875q0 1.203125 -0.71875 1.828125q-0.703125 0.625 -2.140625 0.625l-5.125 0l0 -1.359375l5.015625 0q0.921875 0 1.359375 -0.34375q0.4375 -0.34375 0.4375 -1.03125q0 -0.25 -0.078125 -0.484375q-0.0625 -0.234375 -0.25 -0.5q-0.1875 -0.25 -0.5 -0.5625q-0.3125 -0.296875 -0.78125 -0.671875l-5.203125 0l0 -1.359375l7.84375 0zm-7.546875 14.890625q-0.203125 -0.53125 -0.296875 -1.09375q-0.109375 -0.546875 -0.109375 -1.140625q0 -1.859375 1.0 -2.875q1.015625 -1.0 2.953125 -1.0q0.9375 0 1.6875 0.28125q0.765625 0.296875 1.296875 0.8125q0.546875 0.53125 0.828125 1.25q0.296875 0.734375 0.296875 1.609375q0 0.609375 -0.09375 1.140625q-0.078125 0.53125 -0.265625 1.015625l-1.296875 0q0.265625 -0.5 0.375 -1.03125q0.125 -0.53125 0.125 -1.09375q0 -0.515625 -0.203125 -0.984375q-0.1875 -0.46875 -0.5625 -0.828125q-0.375 -0.34375 -0.921875 -0.546875q-0.53125 -0.203125 -1.21875 -0.203125q-1.421875 0 -2.125 0.6875q-0.703125 0.703125 -0.703125 1.921875q0 0.5625 0.125 1.078125q0.125 0.515625 0.375 1.0l-1.265625 0zm4.046875 9.328125q-0.296875 0 -0.5 -0.015625q-0.1875 0 -0.359375 -0.015625l0 -5.5q-1.203125 0 -1.84375 0.671875q-0.640625 0.671875 -0.640625 1.9375q0 0.34375 0.015625 0.6875q0.03125 0.34375 0.078125 0.65625q0.046875 0.328125 0.109375 0.609375q0.0625 0.296875 0.125 0.546875l-1.109375 0q-0.15625 -0.546875 -0.25 -1.25q-0.109375 -0.703125 -0.109375 -1.453125q0 -1.0 0.265625 -1.734375q0.28125 -0.71875 0.796875 -1.1875q0.53125 -0.46875 1.28125 -0.6875q0.75 -0.21875 1.703125 -0.21875q0.828125 0 1.5625 0.234375q0.75 0.234375 1.296875 0.6875q0.5625 0.46875 0.890625 1.125q0.328125 0.671875 0.328125 1.515625q0 0.8125 -0.265625 1.4375q-0.25 0.640625 -0.71875 1.078125q-0.46875 0.4375 -1.15625 0.65625q-0.671875 0.21875 -1.5 0.21875zm0.1875 -1.40625q0.53125 0.015625 0.953125 -0.109375q0.4375 -0.125 0.75 -0.390625q0.3125 -0.25 0.484375 -0.640625q0.1875 -0.390625 0.1875 -0.90625q0 -0.453125 -0.171875 -0.828125q-0.171875 -0.359375 -0.484375 -0.625q-0.3125 -0.265625 -0.75 -0.4375q-0.4375 -0.15625 -0.96875 -0.1875l0 4.125zm-2.390625 9.796875q-0.40625 0 -0.734375 -0.140625q-0.328125 -0.140625 -0.59375 -0.390625q-0.25 -0.234375 -0.4375 -0.5625q-0.171875 -0.3125 -0.296875 -0.6875q-0.109375 -0.359375 -0.15625 -0.75q-0.0625 -0.375 -0.0625 -0.734375q0 -0.796875 0.078125 -1.46875q0.0625 -0.671875 0.21875 -1.3125l1.25 0q-0.1875 0.6875 -0.296875 1.359375q-0.09375 0.6875 -0.09375 1.359375q0 0.984375 0.265625 1.453125q0.265625 0.46875 0.75 0.46875q0.21875 0 0.375 -0.078125q0.171875 -0.078125 0.328125 -0.28125q0.15625 -0.1875 0.3125 -0.59375q0.171875 -0.40625 0.375 -1.125q0.15625 -0.53125 0.359375 -0.984375q0.203125 -0.4375 0.46875 -0.765625q0.28125 -0.328125 0.640625 -0.515625q0.375 -0.1875 0.875 -0.1875q0.328125 0 0.71875 0.140625q0.390625 0.15625 0.71875 0.515625q0.34375 0.375 0.5625 1.0q0.21875 0.625 0.21875 1.5625q0 0.46875 -0.046875 1.03125q-0.046875 0.5625 -0.171875 1.171875l-1.21875 0q0.15625 -0.640625 0.234375 -1.21875q0.078125 -0.578125 0.078125 -1.0q0 -0.5 -0.078125 -0.859375q-0.078125 -0.34375 -0.21875 -0.5625q-0.140625 -0.203125 -0.328125 -0.296875q-0.171875 -0.09375 -0.390625 -0.09375q-0.203125 0 -0.375 0.078125q-0.171875 0.078125 -0.34375 0.296875q-0.15625 0.234375 -0.3125 0.625q-0.15625 0.40625 -0.34375 1.046875q-0.203125 0.6875 -0.4375 1.15625q-0.21875 0.484375 -0.5 0.78125q-0.265625 0.296875 -0.609375 0.421875q-0.34375 0.140625 -0.78125 0.140625zm0.328125 5.671875q0 0.265625 -0.109375 0.5q-0.09375 0.234375 -0.28125 0.40625q-0.171875 0.1875 -0.421875 0.28125q-0.234375 0.109375 -0.5 0.109375q-0.265625 0 -0.5 -0.109375q-0.234375 -0.09375 -0.421875 -0.28125q-0.171875 -0.171875 -0.265625 -0.40625q-0.109375 -0.234375 -0.109375 -0.5q0 -0.28125 0.109375 -0.515625q0.09375 -0.234375 0.265625 -0.40625q0.1875 -0.171875 0.421875 -0.28125q0.234375 -0.09375 0.5 -0.09375q0.265625 0 0.5 0.09375q0.25 0.109375 0.421875 0.28125q0.1875 0.171875 0.28125 0.40625q0.109375 0.234375 0.109375 0.515625zm1.296875 5.3125q1.0 0 1.765625 0.265625q0.78125 0.28125 1.3125 0.78125q0.546875 0.5 0.8125 1.203125q0.28125 0.71875 0.28125 1.578125q0 0.375 -0.046875 0.734375q-0.046875 0.375 -0.140625 0.71875l3.296875 0l0 1.375l-11.046875 0l0 -1.21875l1.484375 -0.046875q-0.828125 -0.578125 -1.234375 -1.25q-0.390625 -0.65625 -0.390625 -1.421875q0 -0.671875 0.28125 -1.1875q0.28125 -0.515625 0.796875 -0.859375q0.515625 -0.328125 1.234375 -0.5q0.71875 -0.171875 1.59375 -0.171875zm0.078125 1.390625q-1.421875 0 -2.125 0.40625q-0.6875 0.421875 -0.6875 1.1875q0 0.515625 0.453125 1.09375q0.46875 0.578125 1.375 1.203125l3.640625 0q0.15625 -0.328125 0.234375 -0.734375q0.078125 -0.40625 0.078125 -0.8125q0 -1.109375 -0.71875 -1.734375q-0.71875 -0.609375 -2.25 -0.609375zm0.5 14.421875q-0.296875 0 -0.5 -0.015625q-0.1875 0 -0.359375 -0.015625l0 -5.5q-1.203125 0 -1.84375 0.671875q-0.640625 0.671875 -0.640625 1.9375q0 0.34375 0.015625 0.6875q0.03125 0.34375 0.078125 0.65625q0.046875 0.328125 0.109375 0.609375q0.0625 0.296875 0.125 0.546875l-1.109375 0q-0.15625 -0.546875 -0.25 -1.25q-0.109375 -0.703125 -0.109375 -1.453125q0 -1.0 0.265625 -1.734375q0.28125 -0.71875 0.796875 -1.1875q0.53125 -0.46875 1.28125 -0.6875q0.75 -0.21875 1.703125 -0.21875q0.828125 0 1.5625 0.234375q0.75 0.234375 1.296875 0.6875q0.5625 0.46875 0.890625 1.125q0.328125 0.671875 0.328125 1.515625q0 0.8125 -0.265625 1.4375q-0.25 0.640625 -0.71875 1.078125q-0.46875 0.4375 -1.15625 0.65625q-0.671875 0.21875 -1.5 0.21875zm0.1875 -1.40625q0.53125 0.015625 0.953125 -0.109375q0.4375 -0.125 0.75 -0.390625q0.3125 -0.25 0.484375 -0.640625q0.1875 -0.390625 0.1875 -0.90625q0 -0.453125 -0.171875 -0.828125q-0.171875 -0.359375 -0.484375 -0.625q-0.3125 -0.265625 -0.75 -0.4375q-0.4375 -0.15625 -0.96875 -0.1875l0 4.125zm5.390625 6.25l0 -2.3125l1.125 0l0 3.6875l-9.90625 0l0 2.3437653l-1.140625 0l0 -6.2968903l1.140625 0l0 2.578125l8.78125 0zm-5.578125 12.750015q-0.296875 0 -0.5 -0.015625q-0.1875 0 -0.359375 -0.015625l0 -5.5q-1.203125 0 -1.84375 0.671875q-0.640625 0.671875 -0.640625 1.9375q0 0.34375 0.015625 0.6875q0.03125 0.34375 0.078125 0.65625q0.046875 0.328125 0.109375 0.609375q0.0625 0.296875 0.125 0.546875l-1.109375 0q-0.15625 -0.546875 -0.25 -1.25q-0.109375 -0.703125 -0.109375 -1.453125q0 -1.0 0.265625 -1.734375q0.28125 -0.71875 0.796875 -1.1875q0.53125 -0.46875 1.28125 -0.6875q0.75 -0.21875 1.703125 -0.21875q0.828125 0 1.5625 0.234375q0.75 0.234375 1.296875 0.6875q0.5625 0.46875 0.890625 1.125q0.328125 0.671875 0.328125 1.515625q0 0.8125 -0.265625 1.4375q-0.25 0.640625 -0.71875 1.078125q-0.46875 0.4375 -1.15625 0.65625q-0.671875 0.21875 -1.5 0.21875zm0.1875 -1.40625q0.53125 0.015625 0.953125 -0.109375q0.4375 -0.125 0.75 -0.390625q0.3125 -0.25 0.484375 -0.640625q0.1875 -0.390625 0.1875 -0.90625q0 -0.453125 -0.171875 -0.828125q-0.171875 -0.359375 -0.484375 -0.625q-0.3125 -0.265625 -0.75 -0.4375q-0.4375 -0.15625 -0.96875 -0.1875l0 4.125zm-4.421875 9.90625q-0.125 -0.46875 -0.171875 -0.96875q-0.046875 -0.484375 -0.046875 -0.984375q0 -1.484375 0.671875 -2.21875q0.671875 -0.71875 2.046875 -0.71875l4.09375 0l0 -2.1875l1.140625 0l0 2.1875l2.15625 0l0.359375 1.359375l-2.515625 0l0 3.53125l-1.140625 0l0 -3.53125l-3.984375 0q-0.84375 0 -1.265625 0.453125q-0.40625 0.453125 -0.40625 1.328125q0 0.375 0.046875 0.8125q0.0625 0.453125 0.1875 0.9375l-1.171875 0zm4.234375 9.09375q-0.296875 0 -0.5 -0.015625q-0.1875 0 -0.359375 -0.015625l0 -5.5q-1.203125 0 -1.84375 0.671875q-0.640625 0.671875 -0.640625 1.9375q0 0.34375 0.015625 0.6875q0.03125 0.34375 0.078125 0.65625q0.046875 0.328125 0.109375 0.609375q0.0625 0.296875 0.125 0.546875l-1.109375 0q-0.15625 -0.546875 -0.25 -1.25q-0.109375 -0.703125 -0.109375 -1.453125q0 -1.0 0.265625 -1.734375q0.28125 -0.71875 0.796875 -1.1875q0.53125 -0.46875 1.28125 -0.6875q0.75 -0.21875 1.703125 -0.21875q0.828125 0 1.5625 0.234375q0.75 0.234375 1.296875 0.6875q0.5625 0.46875 0.890625 1.125q0.328125 0.671875 0.328125 1.515625q0 0.8125 -0.265625 1.4375q-0.25 0.640625 -0.71875 1.078125q-0.46875 0.4375 -1.15625 0.65625q-0.671875 0.21875 -1.5 0.21875zm0.1875 -1.40625q0.53125 0.015625 0.953125 -0.109375q0.4375 -0.125 0.75 -0.390625q0.3125 -0.25 0.484375 -0.640625q0.1875 -0.390625 0.1875 -0.90625q0 -0.453125 -0.171875 -0.828125q-0.171875 -0.359375 -0.484375 -0.625q-0.3125 -0.265625 -0.75 -0.4375q-0.4375 -0.15625 -0.96875 -0.1875l0 4.125zm-7.8125 8.281235q3.34375 -3.609375 7.375 -3.609375q0.953125 0 1.890625 0.1875q0.9375 0.203125 1.875 0.625q0.953125 0.421875 1.890625 1.125q0.953125 0.703125 1.890625 1.703125l-0.8125 0.78125q-2.984375 -3.03125 -6.625 -3.03125q-1.8125 0 -3.5 0.765625q-1.671875 0.765625 -3.15625 2.265625l-0.828125 -0.8125zm14.921875 5.703125q-3.34375 3.59375 -7.421875 3.59375q-0.84375 0 -1.75 -0.171875q-0.90625 -0.171875 -1.859375 -0.59375q-0.953125 -0.40625 -1.921875 -1.109375q-0.984375 -0.6875 -1.96875 -1.75l0.796875 -0.796875q1.515625 1.53125 3.15625 2.28125q1.640625 0.75 3.4375 0.75q3.71875 0 6.6875 -3.03125l0.84375 0.828125z" fill-rule="nonzero"/><path fill="#000000" fill-opacity="0.0" d="m499.45145 326.68765l188.6614 0l0 27.968506l-188.6614 0z" fill-rule="evenodd"/><path stroke="#000000" stroke-width="1.0" stroke-linejoin="round" stroke-linecap="butt" stroke-dasharray="4.0,3.0" d="m499.45145 326.68765l188.6614 0l0 27.968506l-188.6614 0z" fill-rule="evenodd"/><path fill="#000000" d="m518.53217 339.81317l-2.3125 0l0 -1.125l3.6875 0l0 6.703125l2.34375 0l0 1.140625l-6.296875 0l0 -1.140625l2.578125 0l0 -5.578125zm0.484375 -4.421875q0.21875 0 0.40625 0.09375q0.203125 0.078125 0.34375 0.234375q0.15625 0.140625 0.234375 0.328125q0.078125 0.1875 0.078125 0.421875q0 0.21875 -0.078125 0.421875q-0.078125 0.1875 -0.234375 0.34375q-0.140625 0.140625 -0.34375 0.21875q-0.1875 0.078125 -0.40625 0.078125q-0.234375 0 -0.4375 -0.078125q-0.1875 -0.078125 -0.328125 -0.21875q-0.140625 -0.15625 -0.234375 -0.34375q-0.078125 -0.203125 -0.078125 -0.421875q0 -0.234375 0.078125 -0.421875q0.09375 -0.1875 0.234375 -0.328125q0.140625 -0.15625 0.328125 -0.234375q0.203125 -0.09375 0.4375 -0.09375zm5.640625 3.296875l1.21875 0l0.046875 1.265625q0.34375 -0.40625 0.65625 -0.671875q0.328125 -0.28125 0.640625 -0.4375q0.3125 -0.171875 0.625 -0.234375q0.328125 -0.0625 0.671875 -0.0625q1.203125 0 1.828125 0.71875q0.625 0.703125 0.625 2.140625l0 5.125l-1.359375 0l0 -5.015625q0 -0.921875 -0.34375 -1.359375q-0.34375 -0.4375 -1.03125 -0.4375q-0.25 0 -0.484375 0.078125q-0.234375 0.0625 -0.5 0.25q-0.25 0.1875 -0.5625 0.5q-0.296875 0.3125 -0.671875 0.78125l0 5.203125l-1.359375 0l0 -7.84375zm15.015625 5.703125q0 0.40625 -0.140625 0.734375q-0.140625 0.328125 -0.390625 0.59375q-0.234375 0.25 -0.5625 0.4375q-0.3125 0.171875 -0.6875 0.296875q-0.359375 0.109375 -0.75 0.15625q-0.375 0.0625 -0.734375 0.0625q-0.796875 0 -1.46875 -0.078125q-0.671875 -0.0625 -1.3125 -0.21875l0 -1.25q0.6875 0.1875 1.359375 0.296875q0.6875 0.09375 1.359375 0.09375q0.984375 0 1.453125 -0.265625q0.46875 -0.265625 0.46875 -0.75q0 -0.21875 -0.078125 -0.375q-0.078125 -0.171875 -0.28125 -0.328125q-0.1875 -0.15625 -0.59375 -0.3125q-0.40625 -0.171875 -1.125 -0.375q-0.53125 -0.15625 -0.984375 -0.359375q-0.4375 -0.203125 -0.765625 -0.46875q-0.328125 -0.28125 -0.515625 -0.640625q-0.1875 -0.375 -0.1875 -0.875q0 -0.328125 0.140625 -0.71875q0.15625 -0.390625 0.515625 -0.71875q0.375 -0.34375 1.0 -0.5625q0.625 -0.21875 1.5625 -0.21875q0.46875 0 1.03125 0.046875q0.5625 0.046875 1.171875 0.171875l0 1.21875q-0.640625 -0.15625 -1.21875 -0.234375q-0.578125 -0.078125 -1.0 -0.078125q-0.5 0 -0.859375 0.078125q-0.34375 0.078125 -0.5625 0.21875q-0.203125 0.140625 -0.296875 0.328125q-0.09375 0.171875 -0.09375 0.390625q0 0.203125 0.078125 0.375q0.078125 0.171875 0.296875 0.34375q0.234375 0.15625 0.625 0.3125q0.40625 0.15625 1.046875 0.34375q0.6875 0.203125 1.15625 0.4375q0.484375 0.21875 0.78125 0.5q0.296875 0.265625 0.421875 0.609375q0.140625 0.34375 0.140625 0.78125zm8.90625 2.03125q-0.46875 0.125 -0.96875 0.171875q-0.484375 0.046875 -0.984375 0.046875q-1.484375 0 -2.21875 -0.671875q-0.71875 -0.671875 -0.71875 -2.046875l0 -4.09375l-2.1875 0l0 -1.140625l2.1875 0l0 -2.15625l1.359375 -0.359375l0 2.515625l3.53125 0l0 1.140625l-3.53125 0l0 3.984375q0 0.84375 0.453125 1.265625q0.453125 0.40625 1.328125 0.40625q0.375 0 0.8125 -0.046875q0.453125 -0.0625 0.9375 -0.1875l0 1.171875zm7.515625 0.109375l-0.03125 -1.0625q-0.640625 0.640625 -1.3125 0.921875q-0.65625 0.28125 -1.375 0.28125q-0.671875 0 -1.15625 -0.171875q-0.46875 -0.171875 -0.78125 -0.46875q-0.3125 -0.3125 -0.453125 -0.71875q-0.140625 -0.40625 -0.140625 -0.875q0 -1.1875 0.875 -1.84375q0.875 -0.671875 2.59375 -0.671875l1.625 0l0 -0.6875q0 -0.703125 -0.453125 -1.109375q-0.4375 -0.421875 -1.34375 -0.421875q-0.671875 0 -1.3125 0.15625q-0.640625 0.140625 -1.328125 0.40625l0 -1.21875q0.25 -0.09375 0.5625 -0.1875q0.328125 -0.09375 0.671875 -0.15625q0.359375 -0.078125 0.734375 -0.109375q0.390625 -0.046875 0.78125 -0.046875q0.703125 0 1.265625 0.15625q0.578125 0.15625 0.96875 0.484375q0.40625 0.3125 0.609375 0.796875q0.21875 0.484375 0.21875 1.140625l0 5.40625l-1.21875 0zm-0.15625 -3.578125l-1.71875 0q-0.515625 0 -0.890625 0.109375q-0.359375 0.09375 -0.59375 0.28125q-0.234375 0.1875 -0.34375 0.453125q-0.109375 0.265625 -0.109375 0.59375q0 0.21875 0.0625 0.4375q0.078125 0.203125 0.234375 0.359375q0.15625 0.15625 0.40625 0.25q0.25 0.09375 0.609375 0.09375q0.46875 0 1.0625 -0.28125q0.609375 -0.28125 1.28125 -0.90625l0 -1.390625zm3.90625 -4.265625l1.21875 0l0.046875 1.265625q0.34375 -0.40625 0.65625 -0.671875q0.328125 -0.28125 0.640625 -0.4375q0.3125 -0.171875 0.625 -0.234375q0.328125 -0.0625 0.671875 -0.0625q1.203125 0 1.828125 0.71875q0.625 0.703125 0.625 2.140625l0 5.125l-1.359375 0l0 -5.015625q0 -0.921875 -0.34375 -1.359375q-0.34375 -0.4375 -1.03125 -0.4375q-0.25 0 -0.484375 0.078125q-0.234375 0.0625 -0.5 0.25q-0.25 0.1875 -0.5625 0.5q-0.296875 0.3125 -0.671875 0.78125l0 5.203125l-1.359375 0l0 -7.84375zm14.890625 7.546875q-0.53125 0.203125 -1.09375 0.296875q-0.546875 0.109375 -1.140625 0.109375q-1.859375 0 -2.875 -1.0q-1.0 -1.015625 -1.0 -2.953125q0 -0.9375 0.28125 -1.6875q0.296875 -0.765625 0.8125 -1.296875q0.53125 -0.546875 1.25 -0.828125q0.734375 -0.296875 1.609375 -0.296875q0.609375 0 1.140625 0.09375q0.53125 0.078125 1.015625 0.265625l0 1.296875q-0.5 -0.265625 -1.03125 -0.375q-0.53125 -0.125 -1.09375 -0.125q-0.515625 0 -0.984375 0.203125q-0.46875 0.1875 -0.828125 0.5625q-0.34375 0.375 -0.546875 0.921875q-0.203125 0.53125 -0.203125 1.21875q0 1.421875 0.6875 2.125q0.703125 0.703125 1.921875 0.703125q0.5625 0 1.078125 -0.125q0.515625 -0.125 1.0 -0.375l0 1.265625zm9.328125 -4.046875q0 0.296875 -0.015625 0.5q0 0.1875 -0.015625 0.359375l-5.5 0q0 1.203125 0.671875 1.84375q0.671875 0.640625 1.9375 0.640625q0.34375 0 0.6875 -0.015625q0.34375 -0.03125 0.65625 -0.078125q0.328125 -0.046875 0.609375 -0.109375q0.296875 -0.0625 0.546875 -0.125l0 1.109375q-0.546875 0.15625 -1.25 0.25q-0.703125 0.109375 -1.453125 0.109375q-1.0 0 -1.734375 -0.265625q-0.71875 -0.28125 -1.1875 -0.796875q-0.46875 -0.53125 -0.6875 -1.28125q-0.21875 -0.75 -0.21875 -1.703125q0 -0.828125 0.234375 -1.5625q0.234375 -0.75 0.6875 -1.296875q0.46875 -0.5625 1.125 -0.890625q0.671875 -0.328125 1.515625 -0.328125q0.8125 0 1.4375 0.265625q0.640625 0.25 1.078125 0.71875q0.4375 0.46875 0.65625 1.15625q0.21875 0.671875 0.21875 1.5zm-1.40625 -0.1875q0.015625 -0.53125 -0.109375 -0.953125q-0.125 -0.4375 -0.390625 -0.75q-0.25 -0.3125 -0.640625 -0.484375q-0.390625 -0.1875 -0.90625 -0.1875q-0.453125 0 -0.828125 0.171875q-0.359375 0.171875 -0.625 0.484375q-0.265625 0.3125 -0.4375 0.75q-0.15625 0.4375 -0.1875 0.96875l4.125 0zm9.796875 2.390625q0 0.40625 -0.140625 0.734375q-0.140625 0.328125 -0.390625 0.59375q-0.234375 0.25 -0.5625 0.4375q-0.3125 0.171875 -0.6875 0.296875q-0.359375 0.109375 -0.75 0.15625q-0.375 0.0625 -0.734375 0.0625q-0.796875 0 -1.46875 -0.078125q-0.671875 -0.0625 -1.3125 -0.21875l0 -1.25q0.6875 0.1875 1.359375 0.296875q0.6875 0.09375 1.359375 0.09375q0.984375 0 1.453125 -0.265625q0.46875 -0.265625 0.46875 -0.75q0 -0.21875 -0.078125 -0.375q-0.078125 -0.171875 -0.28125 -0.328125q-0.1875 -0.15625 -0.59375 -0.3125q-0.40625 -0.171875 -1.125 -0.375q-0.53125 -0.15625 -0.984375 -0.359375q-0.4375 -0.203125 -0.765625 -0.46875q-0.328125 -0.28125 -0.515625 -0.640625q-0.1875 -0.375 -0.1875 -0.875q0 -0.328125 0.140625 -0.71875q0.15625 -0.390625 0.515625 -0.71875q0.375 -0.34375 1.0 -0.5625q0.625 -0.21875 1.5625 -0.21875q0.46875 0 1.03125 0.046875q0.5625 0.046875 1.171875 0.171875l0 1.21875q-0.640625 -0.15625 -1.21875 -0.234375q-0.578125 -0.078125 -1.0 -0.078125q-0.5 0 -0.859375 0.078125q-0.34375 0.078125 -0.5625 0.21875q-0.203125 0.140625 -0.296875 0.328125q-0.09375 0.171875 -0.09375 0.390625q0 0.203125 0.078125 0.375q0.078125 0.171875 0.296875 0.34375q0.234375 0.15625 0.625 0.3125q0.40625 0.15625 1.046875 0.34375q0.6875 0.203125 1.15625 0.4375q0.484375 0.21875 0.78125 0.5q0.296875 0.265625 0.421875 0.609375q0.140625 0.34375 0.140625 0.78125zm5.671875 -0.328125q0.265625 0 0.5 0.109375q0.234375 0.09375 0.40625 0.28125q0.1875 0.171875 0.28125 0.421875q0.109375 0.234375 0.109375 0.5q0 0.265625 -0.109375 0.5q-0.09375 0.234375 -0.28125 0.421875q-0.171875 0.171875 -0.40625 0.265625q-0.234375 0.109375 -0.5 0.109375q-0.28125 0 -0.515625 -0.109375q-0.234375 -0.09375 -0.40625 -0.265625q-0.171875 -0.1875 -0.28125 -0.421875q-0.09375 -0.234375 -0.09375 -0.5q0 -0.265625 0.09375 -0.5q0.109375 -0.25 0.28125 -0.421875q0.171875 -0.1875 0.40625 -0.28125q0.234375 -0.109375 0.515625 -0.109375zm5.3125 -1.296875q0 -1.0 0.265625 -1.765625q0.28125 -0.78125 0.78125 -1.3125q0.5 -0.546875 1.203125 -0.8125q0.71875 -0.28125 1.578125 -0.28125q0.375 0 0.734375 0.046875q0.375 0.046875 0.71875 0.140625l0 -3.296875l1.375 0l0 11.046875l-1.21875 0l-0.046875 -1.484375q-0.578125 0.828125 -1.25 1.234375q-0.65625 0.390625 -1.421875 0.390625q-0.671875 0 -1.1875 -0.28125q-0.515625 -0.28125 -0.859375 -0.796875q-0.328125 -0.515625 -0.5 -1.234375q-0.171875 -0.71875 -0.171875 -1.59375zm1.390625 -0.078125q0 1.421875 0.40625 2.125q0.421875 0.6875 1.1875 0.6875q0.515625 0 1.09375 -0.453125q0.578125 -0.46875 1.203125 -1.375l0 -3.640625q-0.328125 -0.15625 -0.734375 -0.234375q-0.40625 -0.078125 -0.8125 -0.078125q-1.109375 0 -1.734375 0.71875q-0.609375 0.71875 -0.609375 2.25zm14.421875 -0.5q0 0.296875 -0.015625 0.5q0 0.1875 -0.015625 0.359375l-5.5 0q0 1.203125 0.671875 1.84375q0.671875 0.640625 1.9375 0.640625q0.34375 0 0.6875 -0.015625q0.34375 -0.03125 0.65625 -0.078125q0.328125 -0.046875 0.609375 -0.109375q0.296875 -0.0625 0.546875 -0.125l0 1.109375q-0.546875 0.15625 -1.25 0.25q-0.703125 0.109375 -1.453125 0.109375q-1.0 0 -1.734375 -0.265625q-0.71875 -0.28125 -1.1875 -0.796875q-0.46875 -0.53125 -0.6875 -1.28125q-0.21875 -0.75 -0.21875 -1.703125q0 -0.828125 0.234375 -1.5625q0.234375 -0.75 0.6875 -1.296875q0.46875 -0.5625 1.125 -0.890625q0.671875 -0.328125 1.515625 -0.328125q0.8125 0 1.4375 0.265625q0.640625 0.25 1.078125 0.71875q0.4375 0.46875 0.65625 1.15625q0.21875 0.671875 0.21875 1.5zm-1.40625 -0.1875q0.015625 -0.53125 -0.109375 -0.953125q-0.125 -0.4375 -0.390625 -0.75q-0.25 -0.3125 -0.640625 -0.484375q-0.390625 -0.1875 -0.90625 -0.1875q-0.453125 0 -0.828125 0.171875q-0.359375 0.171875 -0.625 0.484375q-0.265625 0.3125 -0.4375 0.75q-0.15625 0.4375 -0.1875 0.96875l4.125 0zm6.25 -5.390625l-2.3125 0l0 -1.125l3.6875 0l0 9.90625l2.34375 0l0 1.140625l-6.296875 0l0 -1.140625l2.578125 0l0 -8.78125zm12.75 5.578125q0 0.296875 -0.015625 0.5q0 0.1875 -0.015625 0.359375l-5.5 0q0 1.203125 0.671875 1.84375q0.671875 0.640625 1.9375 0.640625q0.34375 0 0.6875 -0.015625q0.34375 -0.03125 0.65625 -0.078125q0.328125 -0.046875 0.609375 -0.109375q0.296875 -0.0625 0.546875 -0.125l0 1.109375q-0.546875 0.15625 -1.25 0.25q-0.703125 0.109375 -1.453125 0.109375q-1.0 0 -1.734375 -0.265625q-0.71875 -0.28125 -1.1875 -0.796875q-0.46875 -0.53125 -0.6875 -1.28125q-0.21875 -0.75 -0.21875 -1.703125q0 -0.828125 0.234375 -1.5625q0.234375 -0.75 0.6875 -1.296875q0.46875 -0.5625 1.125 -0.890625q0.671875 -0.328125 1.515625 -0.328125q0.8125 0 1.4375 0.265625q0.640625 0.25 1.078125 0.71875q0.4375 0.46875 0.65625 1.15625q0.21875 0.671875 0.21875 1.5zm-1.40625 -0.1875q0.015625 -0.53125 -0.109375 -0.953125q-0.125 -0.4375 -0.390625 -0.75q-0.25 -0.3125 -0.640625 -0.484375q-0.390625 -0.1875 -0.90625 -0.1875q-0.453125 0 -0.828125 0.171875q-0.359375 0.171875 -0.625 0.484375q-0.265625 0.3125 -0.4375 0.75q-0.15625 0.4375 -0.1875 0.96875l4.125 0zm9.90625 4.421875q-0.46875 0.125 -0.96875 0.171875q-0.484375 0.046875 -0.984375 0.046875q-1.484375 0 -2.21875 -0.671875q-0.71875 -0.671875 -0.71875 -2.046875l0 -4.09375l-2.1875 0l0 -1.140625l2.1875 0l0 -2.15625l1.359375 -0.359375l0 2.515625l3.53125 0l0 1.140625l-3.53125 0l0 3.984375q0 0.84375 0.453125 1.265625q0.453125 0.40625 1.328125 0.40625q0.375 0 0.8125 -0.046875q0.453125 -0.0625 0.9375 -0.1875l0 1.171875zm9.09375 -4.234375q0 0.296875 -0.015625 0.5q0 0.1875 -0.015625 0.359375l-5.5 0q0 1.203125 0.671875 1.84375q0.671875 0.640625 1.9375 0.640625q0.34375 0 0.6875 -0.015625q0.34375 -0.03125 0.65625 -0.078125q0.328125 -0.046875 0.609375 -0.109375q0.296875 -0.0625 0.546875 -0.125l0 1.109375q-0.546875 0.15625 -1.25 0.25q-0.703125 0.109375 -1.453125 0.109375q-1.0 0 -1.734375 -0.265625q-0.71875 -0.28125 -1.1875 -0.796875q-0.46875 -0.53125 -0.6875 -1.28125q-0.21875 -0.75 -0.21875 -1.703125q0 -0.828125 0.234375 -1.5625q0.234375 -0.75 0.6875 -1.296875q0.46875 -0.5625 1.125 -0.890625q0.671875 -0.328125 1.515625 -0.328125q0.8125 0 1.4375 0.265625q0.640625 0.25 1.078125 0.71875q0.4375 0.46875 0.65625 1.15625q0.21875 0.671875 0.21875 1.5zm-1.40625 -0.1875q0.015625 -0.53125 -0.109375 -0.953125q-0.125 -0.4375 -0.390625 -0.75q-0.25 -0.3125 -0.640625 -0.484375q-0.390625 -0.1875 -0.90625 -0.1875q-0.453125 0 -0.828125 0.171875q-0.359375 0.171875 -0.625 0.484375q-0.265625 0.3125 -0.4375 0.75q-0.15625 0.4375 -0.1875 0.96875l4.125 0zm8.28125 7.8125q-3.609375 -3.34375 -3.609375 -7.375q0 -0.953125 0.1875 -1.890625q0.203125 -0.9375 0.625 -1.875q0.421875 -0.953125 1.125 -1.890625q0.703125 -0.953125 1.703125 -1.890625l0.78125 0.8125q-3.03125 2.984375 -3.03125 6.625q0 1.8125 0.765625 3.5q0.765625 1.671875 2.265625 3.15625l-0.8125 0.828125zm5.703125 -14.921875q3.59375 3.34375 3.59375 7.421875q0 0.84375 -0.171875 1.75q-0.171875 0.90625 -0.59375 1.859375q-0.40625 0.953125 -1.109375 1.921875q-0.6875 0.984375 -1.75 1.96875l-0.796875 -0.796875q1.53125 -1.515625 2.28125 -3.15625q0.75 -1.640625 0.75 -3.4375q0 -3.71875 -3.03125 -6.6875l0.828125 -0.84375z" fill-rule="nonzero"/><path fill="#000000" fill-opacity="0.0" d="m593.7874 126.73622l0 29.952759" fill-rule="evenodd"/><path stroke="#000000" stroke-width="2.0" stroke-linejoin="round" stroke-linecap="butt" d="m593.7874 126.73622l0 17.952759" fill-rule="evenodd"/><path fill="#000000" stroke="#000000" stroke-width="2.0" stroke-linecap="butt" d="m590.48395 144.68898l3.3034668 9.076187l3.3034668 -9.076187z" fill-rule="evenodd"/><path fill="#000000" fill-opacity="0.0" d="m507.7874 271.54724l-59.149628 0" fill-rule="evenodd"/><path stroke="#000000" stroke-width="2.0" stroke-linejoin="round" stroke-linecap="butt" d="m507.7874 271.54724l-59.149628 0" fill-rule="evenodd"/><path fill="#000000" fill-opacity="0.0" d="m679.7874 50.04462l27.464539 0l0 48.692913" fill-rule="evenodd"/><path stroke="#000000" stroke-width="2.0" stroke-linejoin="round" stroke-linecap="butt" d="m679.7874 50.04462l27.464539 0l0 48.692913" fill-rule="evenodd"/><path fill="#000000" fill-opacity="0.0" d="m593.7874 294.5551l0 32.125977" fill-rule="evenodd"/><path stroke="#000000" stroke-width="2.0" stroke-linejoin="round" stroke-linecap="butt" d="m593.7874 294.5551l0 32.125977" fill-rule="evenodd"/></g></svg>