<svg xmlns="http://www.w3.org/2000/svg" viewBox="0 0 736 300"><defs><style>.cls-1{fill:#afbdc4;}.cls-10,.cls-2{fill:#4285f4;}.cls-12,.cls-16,.cls-17,.cls-3{fill:#80868b;}.cls-4{fill:#fefefe;}.cls-11,.cls-15,.cls-18,.cls-5{fill:#34a853;}.cls-6{fill:#f1f3f5;}.cls-7{fill:#9aa0a6;}.cls-13,.cls-8{fill:#fbbc04;}.cls-9{fill:#fff;}.cls-10,.cls-11,.cls-12,.cls-13{font-size:12px;}.cls-10,.cls-11,.cls-12,.cls-13,.cls-14,.cls-15,.cls-16{font-family:GoogleSans-Regular, Google Sans;}.cls-14{font-size:20px;fill:#3c4043;}.cls-15,.cls-16{font-size:10px;}.cls-17,.cls-18{fill-rule:evenodd;}</style></defs><title>tiers-standard@1x</title><g id="tiers-premium_" data-name="tiers-premium
"><rect class="cls-1" x="443.7" y="230.26" width="105.2" height="4.2" transform="translate(-18.94 418.99) rotate(-45)"/><polygon class="cls-1" points="389.68 196.18 385.48 196.16 385.52 188.56 385.52 188.56 385.53 186.56 385.53 186.56 385.54 184.56 385.54 184.56 385.55 182.56 385.55 182.56 385.56 180.56 385.56 180.56 385.64 166.56 385.64 166.56 385.65 164.56 385.65 164.56 385.66 162.56 385.66 162.56 385.67 160.56 385.67 160.56 385.74 146.56 385.74 146.56 385.75 144.56 385.75 144.56 385.77 142.56 385.76 142.56 385.78 140.56 385.77 140.56 385.79 138.56 385.79 138.56 385.88 121.36 390.08 121.38 390.02 133.38 390.02 133.38 390 135.38 390.01 135.38 389.99 137.38 390 137.38 389.98 139.38 389.98 139.38 389.97 141.38 389.97 141.38 389.9 155.38 389.9 155.38 389.89 157.38 389.89 157.38 389.88 159.38 389.88 159.38 389.87 161.38 389.87 161.38 389.79 175.38 389.79 175.38 389.78 177.38 389.78 177.38 389.77 179.38 389.77 179.38 389.76 181.38 389.76 181.38 389.75 183.38 389.75 183.38 389.68 196.18"/><polygon class="cls-1" points="462.68 269.18 458.48 269.15 458.52 261.56 458.52 261.56 458.53 259.56 458.53 259.56 458.54 257.56 458.54 257.56 458.55 255.56 458.55 255.56 458.56 253.56 458.56 253.56 458.63 241.56 458.63 241.56 458.64 239.56 458.64 239.56 458.65 237.56 458.65 237.56 458.66 235.56 458.66 235.56 458.67 233.56 458.67 233.56 458.74 219.56 458.74 219.56 458.75 217.56 458.75 217.56 458.77 215.56 458.76 215.56 458.78 213.56 458.77 213.56 458.79 211.56 458.79 211.56 458.88 194.36 463.08 194.38 463.02 206.38 463.02 206.38 463 208.38 463.01 208.38 462.99 210.38 463 210.38 462.98 212.38 462.98 212.38 462.97 214.38 462.97 214.38 462.9 228.38 462.9 228.38 462.89 230.38 462.89 230.38 462.88 232.38 462.88 232.38 462.87 234.38 462.87 234.38 462.86 236.38 462.86 236.38 462.79 248.38 462.79 248.38 462.78 250.38 462.78 250.38 462.77 252.38 462.77 252.38 462.76 254.38 462.76 254.38 462.75 256.38 462.75 256.38 462.68 269.18"/><polygon class="cls-1" points="243.59 198.03 240.62 195.06 246.28 189.41 246.28 189.41 248.54 187.15 248.54 187.15 251.94 183.75 251.94 183.75 254.76 180.92 254.76 180.92 256.18 179.51 256.18 179.51 264.66 171.02 264.66 171.02 266.92 168.76 266.93 168.76 273.15 162.54 273.15 162.54 274.56 161.12 274.56 161.12 278.81 156.88 278.81 156.88 281.63 154.05 281.63 154.05 315.01 120.68 317.98 123.65 286.87 154.76 286.87 154.76 285.45 156.18 285.45 156.18 281.21 160.42 281.21 160.42 278.38 163.25 278.38 163.25 268.48 173.15 268.48 173.15 266.22 175.41 266.22 175.41 262.82 178.8 262.82 178.8 260 181.63 260 181.63 258.58 183.05 258.58 183.05 250.1 191.53 250.1 191.53 247.84 193.79 247.84 193.79 243.59 198.03"/><rect class="cls-2" x="123.87" y="192.37" width="48.96" height="4.2"/><rect class="cls-1" x="188.87" y="192.37" width="48.96" height="4.2"/><rect class="cls-1" x="400.87" y="192.37" width="48.96" height="4.2"/><rect class="cls-1" x="548.87" y="192.37" width="112.82" height="4.2"/><rect class="cls-1" x="332.87" y="120.37" width="48.96" height="4.2"/><circle class="cls-3" cx="243.8" cy="195.07" r="25.96"/><path class="cls-4" d="M252.92,176.93a20.06,20.06,0,0,0-7.52-2.1c-.53,0-1.06-.08-1.6-.08s-1.07,0-1.6.08a20,20,0,0,0-7.51,2.1,20.34,20.34,0,0,0-10.3,12.13,8,8,0,0,0,12.08-3.27,8,8,0,0,0,14.67,0,8,8,0,0,0,12.08,3.27A20.34,20.34,0,0,0,252.92,176.93Z"/><ellipse class="cls-2" cx="99.57" cy="195.09" rx="25.96" ry="25.99"/><ellipse class="cls-5" cx="171.68" cy="195.09" rx="25.96" ry="25.99"/><path class="cls-3" d="M414,195.07a26,26,0,1,0-42.48,20v-3.5h4.72v6.6A26,26,0,0,0,381,220v-8.45h4.72v9.33c.78.07,1.57.11,2.36.11s1.59,0,2.36-.11v-9.33h4.72V220a25.43,25.43,0,0,0,4.72-1.85v-6.6h4.72v3.5A25.88,25.88,0,0,0,414,195.07Zm-37.76,11.8h-4.72v-9.44h4.72Zm0-14.16h-4.72v-9.45h4.72Zm9.44,14.16H381v-9.44h4.72Zm0-14.16H381v-9.45h4.72Zm9.44,14.16h-4.72v-9.44h4.72Zm0-14.16h-4.72v-9.45h4.72Zm9.44,14.16h-4.72v-9.44h4.72Zm0-14.16h-4.72v-9.45h4.72Z"/><rect class="cls-4" x="371.53" y="183.26" width="4.72" height="9.44"/><rect class="cls-4" x="380.97" y="183.26" width="4.72" height="9.44"/><rect class="cls-4" x="390.41" y="183.26" width="4.72" height="9.44"/><rect class="cls-4" x="399.85" y="183.26" width="4.72" height="9.44"/><rect class="cls-4" x="371.53" y="197.43" width="4.72" height="9.44"/><rect class="cls-4" x="380.97" y="197.43" width="4.72" height="9.44"/><rect class="cls-4" x="390.41" y="197.43" width="4.72" height="9.44"/><rect class="cls-4" x="399.85" y="197.43" width="4.72" height="9.44"/><path class="cls-4" d="M371.53,211.59v3.5a26.51,26.51,0,0,0,4.72,3.1v-6.6Z"/><path class="cls-4" d="M381,211.59V220a26.23,26.23,0,0,0,4.72.88v-9.33Z"/><path class="cls-4" d="M390.41,211.59v9.33a26.23,26.23,0,0,0,4.72-.88v-8.45Z"/><path class="cls-4" d="M399.85,211.59v6.6a25.81,25.81,0,0,0,4.72-3.1v-3.5Z"/><path class="cls-6" d="M341.89,195.07a26,26,0,1,0-42.48,20v-3.5h4.72v6.6a25.43,25.43,0,0,0,4.72,1.85v-8.45h4.72v9.33c.78.07,1.56.11,2.36.11s1.58,0,2.36-.11v-9.33H323V220a26,26,0,0,0,4.72-1.85v-6.6h4.72v3.5A25.91,25.91,0,0,0,341.89,195.07Zm-37.76,11.8h-4.72v-9.44h4.72Zm0-14.16h-4.72v-9.45h4.72Zm9.44,14.16h-4.72v-9.44h4.72Zm0-14.16h-4.72v-9.45h4.72ZM323,206.87h-4.72v-9.44H323Zm0-14.16h-4.72v-9.45H323Zm9.44,14.16h-4.72v-9.44h4.72Zm0-14.16h-4.72v-9.45h4.72Z"/><rect class="cls-4" x="299.41" y="183.26" width="4.72" height="9.44"/><rect class="cls-4" x="308.85" y="183.26" width="4.72" height="9.44"/><rect class="cls-4" x="318.29" y="183.26" width="4.72" height="9.44"/><rect class="cls-4" x="327.73" y="183.26" width="4.72" height="9.44"/><rect class="cls-4" x="299.41" y="197.43" width="4.72" height="9.44"/><rect class="cls-4" x="308.85" y="197.43" width="4.72" height="9.44"/><rect class="cls-4" x="318.29" y="197.43" width="4.72" height="9.44"/><rect class="cls-4" x="327.73" y="197.43" width="4.72" height="9.44"/><path class="cls-4" d="M299.41,211.59v3.5a26.16,26.16,0,0,0,4.72,3.1v-6.6Z"/><path class="cls-4" d="M308.85,211.59V220a26.23,26.23,0,0,0,4.72.88v-9.33Z"/><path class="cls-4" d="M318.29,211.59v9.33A26.23,26.23,0,0,0,323,220v-8.45Z"/><path class="cls-4" d="M327.73,211.59v6.6a26.16,26.16,0,0,0,4.72-3.1v-3.5Z"/><path class="cls-6" d="M414.55,267.07a26,26,0,1,0-42.48,20v-3.5h4.72v6.6a26,26,0,0,0,4.72,1.85v-8.45h4.72v9.33c.78.07,1.57.11,2.36.11s1.58,0,2.36-.11v-9.33h4.72V292a25.43,25.43,0,0,0,4.72-1.85v-6.6h4.72v3.5A25.88,25.88,0,0,0,414.55,267.07Zm-37.76,11.8h-4.72v-9.44h4.72Zm0-14.16h-4.72v-9.45h4.72Zm9.44,14.16h-4.72v-9.44h4.72Zm0-14.16h-4.72v-9.45h4.72Zm9.44,14.16H391v-9.44h4.72Zm0-14.16H391v-9.45h4.72Zm9.44,14.16h-4.72v-9.44h4.72Zm0-14.16h-4.72v-9.45h4.72Z"/><rect class="cls-4" x="372.07" y="255.26" width="4.72" height="9.44"/><rect class="cls-4" x="381.51" y="255.26" width="4.72" height="9.44"/><rect class="cls-4" x="390.95" y="255.26" width="4.72" height="9.44"/><rect class="cls-4" x="400.39" y="255.26" width="4.72" height="9.44"/><rect class="cls-4" x="372.07" y="269.43" width="4.72" height="9.44"/><rect class="cls-4" x="381.51" y="269.43" width="4.72" height="9.44"/><rect class="cls-4" x="390.95" y="269.43" width="4.72" height="9.44"/><rect class="cls-4" x="400.39" y="269.43" width="4.72" height="9.44"/><path class="cls-4" d="M372.07,283.59v3.5a26.16,26.16,0,0,0,4.72,3.1v-6.6Z"/><path class="cls-4" d="M381.51,283.59V292a26.23,26.23,0,0,0,4.72.88v-9.33Z"/><path class="cls-4" d="M391,283.59v9.33a26.23,26.23,0,0,0,4.72-.88v-8.45Z"/><path class="cls-4" d="M400.39,283.59v6.6a26.16,26.16,0,0,0,4.72-3.1v-3.5Z"/><path class="cls-6" d="M558.26,267.07a26,26,0,1,0-42.48,20v-3.5h4.72v6.6a26,26,0,0,0,4.72,1.85v-8.45h4.72v9.33c.78.07,1.57.11,2.36.11s1.59,0,2.36-.11v-9.33h4.72V292a25.43,25.43,0,0,0,4.72-1.85v-6.6h4.72v3.5A25.88,25.88,0,0,0,558.26,267.07Zm-37.76,11.8h-4.72v-9.44h4.72Zm0-14.16h-4.72v-9.45h4.72Zm9.44,14.16h-4.72v-9.44h4.72Zm0-14.16h-4.72v-9.45h4.72Zm9.44,14.16h-4.72v-9.44h4.72Zm0-14.16h-4.72v-9.45h4.72Zm9.44,14.16H544.1v-9.44h4.72Zm0-14.16H544.1v-9.45h4.72Z"/><rect class="cls-4" x="515.78" y="255.26" width="4.72" height="9.44"/><rect class="cls-4" x="525.22" y="255.26" width="4.72" height="9.44"/><rect class="cls-4" x="534.66" y="255.26" width="4.72" height="9.44"/><rect class="cls-4" x="544.1" y="255.26" width="4.72" height="9.44"/><rect class="cls-4" x="515.78" y="269.43" width="4.72" height="9.44"/><rect class="cls-4" x="525.22" y="269.43" width="4.72" height="9.44"/><rect class="cls-4" x="534.66" y="269.43" width="4.72" height="9.44"/><rect class="cls-4" x="544.1" y="269.43" width="4.72" height="9.44"/><path class="cls-4" d="M515.78,283.59v3.5a26.51,26.51,0,0,0,4.72,3.1v-6.6Z"/><path class="cls-4" d="M525.22,283.59V292a26.23,26.23,0,0,0,4.72.88v-9.33Z"/><path class="cls-4" d="M534.66,283.59v9.33a26.23,26.23,0,0,0,4.72-.88v-8.45Z"/><path class="cls-4" d="M544.1,283.59v6.6a25.81,25.81,0,0,0,4.72-3.1v-3.5Z"/><path class="cls-6" d="M341.89,267.07a26,26,0,1,0-42.48,20v-3.5h4.72v6.6a25.43,25.43,0,0,0,4.72,1.85v-8.45h4.72v9.33c.78.07,1.56.11,2.36.11s1.58,0,2.36-.11v-9.33H323V292a26,26,0,0,0,4.72-1.85v-6.6h4.72v3.5A25.91,25.91,0,0,0,341.89,267.07Zm-37.76,11.8h-4.72v-9.44h4.72Zm0-14.16h-4.72v-9.45h4.72Zm9.44,14.16h-4.72v-9.44h4.72Zm0-14.16h-4.72v-9.45h4.72ZM323,278.87h-4.72v-9.44H323Zm0-14.16h-4.72v-9.45H323Zm9.44,14.16h-4.72v-9.44h4.72Zm0-14.16h-4.72v-9.45h4.72Z"/><rect class="cls-4" x="299.41" y="255.26" width="4.72" height="9.44"/><rect class="cls-4" x="308.85" y="255.26" width="4.72" height="9.44"/><rect class="cls-4" x="318.29" y="255.26" width="4.72" height="9.44"/><rect class="cls-4" x="327.73" y="255.26" width="4.72" height="9.44"/><rect class="cls-4" x="299.41" y="269.43" width="4.72" height="9.44"/><rect class="cls-4" x="308.85" y="269.43" width="4.72" height="9.44"/><rect class="cls-4" x="318.29" y="269.43" width="4.72" height="9.44"/><rect class="cls-4" x="327.73" y="269.43" width="4.72" height="9.44"/><path class="cls-4" d="M299.41,283.59v3.5a26.16,26.16,0,0,0,4.72,3.1v-6.6Z"/><path class="cls-4" d="M308.85,283.59V292a26.23,26.23,0,0,0,4.72.88v-9.33Z"/><path class="cls-4" d="M318.29,283.59v9.33A26.23,26.23,0,0,0,323,292v-8.45Z"/><path class="cls-4" d="M327.73,283.59v6.6a26.16,26.16,0,0,0,4.72-3.1v-3.5Z"/><path class="cls-6" d="M269.76,267.07a26,26,0,1,0-42.48,20v-3.5H232v6.6a26,26,0,0,0,4.72,1.85v-8.45h4.72v9.33c.78.07,1.57.11,2.36.11s1.59,0,2.36-.11v-9.33h4.72V292a25.43,25.43,0,0,0,4.72-1.85v-6.6h4.72v3.5A25.88,25.88,0,0,0,269.76,267.07ZM232,278.87h-4.72v-9.44H232Zm0-14.16h-4.72v-9.45H232Zm9.44,14.16h-4.72v-9.44h4.72Zm0-14.16h-4.72v-9.45h4.72Zm9.44,14.16h-4.72v-9.44h4.72Zm0-14.16h-4.72v-9.45h4.72Zm9.44,14.16H255.6v-9.44h4.72Zm0-14.16H255.6v-9.45h4.72Z"/><rect class="cls-4" x="227.28" y="255.26" width="4.72" height="9.44"/><rect class="cls-4" x="236.72" y="255.26" width="4.72" height="9.44"/><rect class="cls-4" x="246.16" y="255.26" width="4.72" height="9.44"/><rect class="cls-4" x="255.6" y="255.26" width="4.72" height="9.44"/><rect class="cls-4" x="227.28" y="269.43" width="4.72" height="9.44"/><rect class="cls-4" x="236.72" y="269.43" width="4.72" height="9.44"/><rect class="cls-4" x="246.16" y="269.43" width="4.72" height="9.44"/><rect class="cls-4" x="255.6" y="269.43" width="4.72" height="9.44"/><path class="cls-4" d="M227.28,283.59v3.5a26.51,26.51,0,0,0,4.72,3.1v-6.6Z"/><path class="cls-4" d="M236.72,283.59V292a26.23,26.23,0,0,0,4.72.88v-9.33Z"/><path class="cls-4" d="M246.16,283.59v9.33a26.23,26.23,0,0,0,4.72-.88v-8.45Z"/><path class="cls-4" d="M255.6,283.59v6.6a25.81,25.81,0,0,0,4.72-3.1v-3.5Z"/><path class="cls-6" d="M269.76,123.07a26,26,0,1,0-42.48,20v-3.5H232v6.6a26,26,0,0,0,4.72,1.85v-8.45h4.72v9.33c.78.07,1.57.11,2.36.11s1.59,0,2.36-.11v-9.33h4.72V148a25.43,25.43,0,0,0,4.72-1.85v-6.6h4.72v3.5A25.88,25.88,0,0,0,269.76,123.07ZM232,134.87h-4.72v-9.44H232Zm0-14.16h-4.72v-9.45H232Zm9.44,14.16h-4.72v-9.44h4.72Zm0-14.16h-4.72v-9.45h4.72Zm9.44,14.16h-4.72v-9.44h4.72Zm0-14.16h-4.72v-9.45h4.72Zm9.44,14.16H255.6v-9.44h4.72Zm0-14.16H255.6v-9.45h4.72Z"/><rect class="cls-4" x="227.28" y="111.26" width="4.72" height="9.44"/><rect class="cls-4" x="236.72" y="111.26" width="4.72" height="9.44"/><rect class="cls-4" x="246.16" y="111.26" width="4.72" height="9.44"/><rect class="cls-4" x="255.6" y="111.26" width="4.72" height="9.44"/><rect class="cls-4" x="227.28" y="125.43" width="4.72" height="9.44"/><rect class="cls-4" x="236.72" y="125.43" width="4.72" height="9.44"/><rect class="cls-4" x="246.16" y="125.43" width="4.72" height="9.44"/><rect class="cls-4" x="255.6" y="125.43" width="4.72" height="9.44"/><path class="cls-4" d="M227.28,139.59v3.5a26.51,26.51,0,0,0,4.72,3.1v-6.6Z"/><path class="cls-4" d="M236.72,139.59V148a26.23,26.23,0,0,0,4.72.88v-9.33Z"/><path class="cls-4" d="M246.16,139.59v9.33a26.23,26.23,0,0,0,4.72-.88v-8.45Z"/><path class="cls-4" d="M255.6,139.59v6.6a25.81,25.81,0,0,0,4.72-3.1v-3.5Z"/><path class="cls-3" d="M486.14,195.07a26,26,0,1,0-42.48,20v-3.5h4.72v6.6A25.43,25.43,0,0,0,453.1,220v-8.45h4.72v9.33c.78.07,1.56.11,2.36.11s1.58,0,2.36-.11v-9.33h4.72V220a26,26,0,0,0,4.72-1.85v-6.6h4.72v3.5A25.91,25.91,0,0,0,486.14,195.07Zm-37.76,11.8h-4.72v-9.44h4.72Zm0-14.16h-4.72v-9.45h4.72Zm9.44,14.16H453.1v-9.44h4.72Zm0-14.16H453.1v-9.45h4.72Zm9.44,14.16h-4.72v-9.44h4.72Zm0-14.16h-4.72v-9.45h4.72Zm9.44,14.16H472v-9.44h4.72Zm0-14.16H472v-9.45h4.72Z"/><rect class="cls-4" x="443.66" y="183.26" width="4.72" height="9.44"/><rect class="cls-4" x="453.1" y="183.26" width="4.72" height="9.44"/><rect class="cls-4" x="462.54" y="183.26" width="4.72" height="9.44"/><rect class="cls-4" x="471.98" y="183.26" width="4.72" height="9.44"/><rect class="cls-4" x="443.66" y="197.43" width="4.72" height="9.44"/><rect class="cls-4" x="453.1" y="197.43" width="4.72" height="9.44"/><rect class="cls-4" x="462.54" y="197.43" width="4.72" height="9.44"/><rect class="cls-4" x="471.98" y="197.43" width="4.72" height="9.44"/><path class="cls-4" d="M443.66,211.59v3.5a26.16,26.16,0,0,0,4.72,3.1v-6.6Z"/><path class="cls-4" d="M453.1,211.59V220a26.23,26.23,0,0,0,4.72.88v-9.33Z"/><path class="cls-4" d="M462.54,211.59v9.33a26.23,26.23,0,0,0,4.72-.88v-8.45Z"/><path class="cls-4" d="M472,211.59v6.6a26.16,26.16,0,0,0,4.72-3.1v-3.5Z"/><path class="cls-6" d="M486.14,123.07a26,26,0,1,0-42.48,20v-3.5h4.72v6.6A25.43,25.43,0,0,0,453.1,148v-8.45h4.72v9.33c.78.07,1.56.11,2.36.11s1.58,0,2.36-.11v-9.33h4.72V148a26,26,0,0,0,4.72-1.85v-6.6h4.72v3.5A25.91,25.91,0,0,0,486.14,123.07Zm-37.76,11.8h-4.72v-9.44h4.72Zm0-14.16h-4.72v-9.45h4.72Zm9.44,14.16H453.1v-9.44h4.72Zm0-14.16H453.1v-9.45h4.72Zm9.44,14.16h-4.72v-9.44h4.72Zm0-14.16h-4.72v-9.45h4.72Zm9.44,14.16H472v-9.44h4.72Zm0-14.16H472v-9.45h4.72Z"/><rect class="cls-4" x="443.66" y="111.26" width="4.72" height="9.44"/><rect class="cls-4" x="453.1" y="111.26" width="4.72" height="9.44"/><rect class="cls-4" x="462.54" y="111.26" width="4.72" height="9.44"/><rect class="cls-4" x="471.98" y="111.26" width="4.72" height="9.44"/><rect class="cls-4" x="443.66" y="125.43" width="4.72" height="9.44"/><rect class="cls-4" x="453.1" y="125.43" width="4.72" height="9.44"/><rect class="cls-4" x="462.54" y="125.43" width="4.72" height="9.44"/><rect class="cls-4" x="471.98" y="125.43" width="4.72" height="9.44"/><path class="cls-4" d="M443.66,139.59v3.5a26.16,26.16,0,0,0,4.72,3.1v-6.6Z"/><path class="cls-4" d="M453.1,139.59V148a26.23,26.23,0,0,0,4.72.88v-9.33Z"/><path class="cls-4" d="M462.54,139.59v9.33a26.23,26.23,0,0,0,4.72-.88v-8.45Z"/><path class="cls-4" d="M472,139.59v6.6a26.16,26.16,0,0,0,4.72-3.1v-3.5Z"/><path class="cls-6" d="M558.26,123.07a26,26,0,1,0-42.48,20v-3.5h4.72v6.6a26,26,0,0,0,4.72,1.85v-8.45h4.72v9.33c.78.07,1.57.11,2.36.11s1.59,0,2.36-.11v-9.33h4.72V148a25.43,25.43,0,0,0,4.72-1.85v-6.6h4.72v3.5A25.88,25.88,0,0,0,558.26,123.07Zm-37.76,11.8h-4.72v-9.44h4.72Zm0-14.16h-4.72v-9.45h4.72Zm9.44,14.16h-4.72v-9.44h4.72Zm0-14.16h-4.72v-9.45h4.72Zm9.44,14.16h-4.72v-9.44h4.72Zm0-14.16h-4.72v-9.45h4.72Zm9.44,14.16H544.1v-9.44h4.72Zm0-14.16H544.1v-9.45h4.72Z"/><rect class="cls-4" x="515.78" y="111.26" width="4.72" height="9.44"/><rect class="cls-4" x="525.22" y="111.26" width="4.72" height="9.44"/><rect class="cls-4" x="534.66" y="111.26" width="4.72" height="9.44"/><rect class="cls-4" x="544.1" y="111.26" width="4.72" height="9.44"/><rect class="cls-4" x="515.78" y="125.43" width="4.72" height="9.44"/><rect class="cls-4" x="525.22" y="125.43" width="4.72" height="9.44"/><rect class="cls-4" x="534.66" y="125.43" width="4.72" height="9.44"/><rect class="cls-4" x="544.1" y="125.43" width="4.72" height="9.44"/><path class="cls-4" d="M515.78,139.59v3.5a26.51,26.51,0,0,0,4.72,3.1v-6.6Z"/><path class="cls-4" d="M525.22,139.59V148a26.23,26.23,0,0,0,4.72.88v-9.33Z"/><path class="cls-4" d="M534.66,139.59v9.33a26.23,26.23,0,0,0,4.72-.88v-8.45Z"/><path class="cls-4" d="M544.1,139.59v6.6a25.81,25.81,0,0,0,4.72-3.1v-3.5Z"/><circle class="cls-3" cx="532.3" cy="195.07" r="25.96"/><path class="cls-4" d="M541.42,176.93a20.06,20.06,0,0,0-7.52-2.1c-.53,0-1.06-.08-1.6-.08s-1.07,0-1.6.08a20,20,0,0,0-7.51,2.1,20.34,20.34,0,0,0-10.3,12.13A8,8,0,0,0,525,185.79a8,8,0,0,0,14.67,0,8,8,0,0,0,12.08,3.27A20.34,20.34,0,0,0,541.42,176.93Z"/><circle class="cls-7" cx="604.43" cy="195.07" r="25.96"/><circle class="cls-3" cx="460.18" cy="267.07" r="25.96"/><path class="cls-4" d="M469.29,248.93a20,20,0,0,0-7.51-2.1c-.53,0-1.06-.08-1.6-.08s-1.07,0-1.6.08a20.06,20.06,0,0,0-7.52,2.1,20.34,20.34,0,0,0-10.3,12.13,8,8,0,0,0,12.08-3.27,8,8,0,0,0,14.68,0,8,8,0,0,0,12.07,3.27A20.34,20.34,0,0,0,469.29,248.93Z"/><ellipse class="cls-8" cx="676.55" cy="195.09" rx="25.96" ry="25.99"/><circle class="cls-3" cx="388.59" cy="123.07" r="25.96"/><path class="cls-4" d="M397.71,104.93a20.06,20.06,0,0,0-7.52-2.1c-.53,0-1.06-.08-1.6-.08s-1.07,0-1.6.08a20.11,20.11,0,0,0-7.52,2.1,20.36,20.36,0,0,0-10.29,12.13,8,8,0,0,0,12.07-3.27,8,8,0,0,0,14.68,0A8,8,0,0,0,408,117.06,20.37,20.37,0,0,0,397.71,104.93Z"/><circle class="cls-3" cx="315.93" cy="123.07" r="25.96"/><path class="cls-4" d="M325,104.93a20,20,0,0,0-7.51-2.1c-.53,0-1.06-.08-1.6-.08s-1.07,0-1.6.08a20.06,20.06,0,0,0-7.52,2.1,20.34,20.34,0,0,0-10.3,12.13,8,8,0,0,0,12.08-3.27,8,8,0,0,0,14.68,0,8,8,0,0,0,12.07,3.27A20.34,20.34,0,0,0,325,104.93Z"/><path class="cls-9" d="M99.57,188.82v-5H87.07v22.5h25v-17.5Zm-7.5,15h-2.5v-2.5h2.5Zm0-5h-2.5v-2.5h2.5Zm0-5h-2.5v-2.5h2.5Zm0-5h-2.5v-2.5h2.5Zm5,15h-2.5v-2.5h2.5Zm0-5h-2.5v-2.5h2.5Zm0-5h-2.5v-2.5h2.5Zm0-5h-2.5v-2.5h2.5Zm12.5,15h-10v-2.5h2.5v-2.5h-2.5v-2.5h2.5v-2.5h-2.5v-2.5h10Zm-2.5-10h-2.5v2.5h2.5Zm0,5h-2.5v2.5h2.5Z"/><path class="cls-9" d="M676.09,194.57a6.25,6.25,0,1,0-6.25-6.25A6.25,6.25,0,0,0,676.09,194.57Zm0,3.12c-4.17,0-12.5,2.09-12.5,6.25v3.13h25v-3.13C688.59,199.78,680.26,197.69,676.09,197.69Z"/><polygon class="cls-9" points="184.09 195.06 178.55 189.51 178.55 193.68 174.37 193.68 168.81 193.68 164.63 193.68 164.63 189.51 159.09 195.06 164.63 200.62 164.63 196.45 168.81 196.45 174.37 196.45 178.55 196.45 178.55 200.62 184.09 195.06"/><path class="cls-9" d="M597.83,190l1.85,1.85a6.62,6.62,0,0,1,9.32,0l1.85-1.85a9.2,9.2,0,0,0-13,0Zm6.52-8a14.43,14.43,0,0,0-10.24,4.23l1.86,1.86a11.85,11.85,0,0,1,16.75,0l1.85-1.85A14.28,14.28,0,0,0,604.35,182.07Zm-1.33,25h2.64v-7.9H603Zm0-10.53h2.64v-2.63H603Z"/><text class="cls-10" transform="translate(61.68 147.74)">Google Cloud<tspan x="-5.38" y="14.4">Platform Region</tspan></text><text class="cls-11" transform="translate(161.1 162.14)">PoP</text><text class="cls-12" transform="translate(583 133.34)">Internet<tspan x="1.51" y="14.4">Service</tspan><tspan x="-1.37" y="28.8">Provider</tspan></text><text class="cls-13" transform="translate(652.54 162.14)">End User</text><text class="cls-12" transform="translate(348.77 17.14)">Public Internet</text><text class="cls-14" transform="translate(26.3 68.14)">Standard</text><text class="cls-15" transform="translate(127.31 96.14)">Traffic exits Google<tspan x="-2.48" y="12">network near source</tspan></text><text class="cls-16" transform="translate(307.97 32.14)">Standard Tier routing is hot potato, <tspan x="-16.71" y="12">which minimizes costs, but results in lower </tspan><tspan x="-16.44" y="24">network quality compared to Premium Tier</tspan></text><rect class="cls-3" x="386.5" y="63.13" width="4.2" height="18.96"/><polygon class="cls-17" points="388.51 92.15 398.26 81.23 378.94 81.23 388.51 92.15"/><rect class="cls-5" x="169.5" y="117.13" width="4.2" height="18.96"/><polygon class="cls-18" points="171.51 146.15 181.26 135.23 161.94 135.23 171.51 146.15"/></g></svg>