<svg xmlns="http://www.w3.org/2000/svg" viewBox="0 0 736 300"><defs><style>.cls-1{font-size:20px;fill:#3c4043;}.cls-1,.cls-10,.cls-11,.cls-12,.cls-13,.cls-8,.cls-9{font-family:GoogleSans-Regular, Google Sans;}.cls-13,.cls-14,.cls-2,.cls-8{fill:#4285f4;}.cls-3{fill:#afbdc4;}.cls-12,.cls-15,.cls-4,.cls-9{fill:#34a853;}.cls-10,.cls-5{fill:#9aa0a6;}.cls-11,.cls-6{fill:#fbbc04;}.cls-7{fill:#fff;}.cls-10,.cls-11,.cls-8,.cls-9{font-size:12px;}.cls-12,.cls-13{font-size:10px;}.cls-14,.cls-15{fill-rule:evenodd;}.cls-16{fill:#fbbc05;}.cls-17{fill:#ea4335;}</style></defs><title>tiers-premium
@1x</title><g id="tiers-premium_" data-name="tiers-premium
"><text class="cls-1" transform="translate(27.08 68.14)">Premium</text><rect class="cls-2" x="69.9" y="199.37" width="259.2" height="4.2"/><rect class="cls-2" x="382.9" y="198.9" width="111.2" height="4.2"/><rect class="cls-3" x="533.9" y="199.37" width="145.2" height="4.2"/><ellipse class="cls-4" cx="518.68" cy="202.09" rx="25.96" ry="25.99"/><circle class="cls-5" cx="611.43" cy="202.07" r="25.96"/><ellipse class="cls-6" cx="702.96" cy="202.03" rx="25.96" ry="25.99"/><ellipse class="cls-2" cx="50.57" cy="202.09" rx="25.96" ry="25.99"/><path class="cls-7" d="M50.57,195.82v-5H38.07v22.5h25v-17.5Zm-7.5,15h-2.5v-2.5h2.5Zm0-5h-2.5v-2.5h2.5Zm0-5h-2.5v-2.5h2.5Zm0-5h-2.5v-2.5h2.5Zm5,15h-2.5v-2.5h2.5Zm0-5h-2.5v-2.5h2.5Zm0-5h-2.5v-2.5h2.5Zm0-5h-2.5v-2.5h2.5Zm12.5,15h-10v-2.5h2.5v-2.5h-2.5v-2.5h2.5v-2.5h-2.5v-2.5h10Zm-2.5-10h-2.5v2.5h2.5Zm0,5h-2.5v2.5h2.5Z"/><path class="cls-7" d="M702.5,201.5a6.25,6.25,0,1,0-6.25-6.25A6.25,6.25,0,0,0,702.5,201.5Zm0,3.12c-4.17,0-12.5,2.1-12.5,6.26V214h25v-3.12C715,206.72,706.67,204.62,702.5,204.62Z"/><polygon class="cls-7" points="531.09 202.06 525.55 196.51 525.55 200.68 521.37 200.68 515.81 200.68 511.63 200.68 511.63 196.51 506.09 202.06 511.63 207.62 511.63 203.45 515.81 203.45 521.37 203.45 525.55 203.45 525.55 207.62 531.09 202.06"/><path class="cls-7" d="M604.83,197l1.85,1.85a6.62,6.62,0,0,1,9.32,0l1.85-1.85a9.2,9.2,0,0,0-13,0Zm6.52-8a14.43,14.43,0,0,0-10.24,4.23l1.86,1.86a11.85,11.85,0,0,1,16.75,0l1.85-1.85A14.28,14.28,0,0,0,611.35,189.07Zm-1.33,25h2.64v-7.9H610Zm0-10.53h2.64v-2.63H610Z"/><text class="cls-8" transform="translate(12.68 154.74)">Google Cloud<tspan x="-5.38" y="14.4">Platform Region</tspan></text><text class="cls-9" transform="translate(508.1 169.14)">PoP</text><text class="cls-10" transform="translate(590 140.34)">Internet<tspan x="1.51" y="14.4">Service</tspan><tspan x="-1.37" y="28.8">Provider</tspan></text><text class="cls-11" transform="translate(678.95 169.07)">End User</text><text class="cls-8" transform="translate(319.6 64.14)">Google Network</text><text class="cls-12" transform="translate(474.31 103.14)">Traffic exits Google<tspan x="-12.26" y="12">network near destination</tspan></text><text class="cls-13" transform="translate(282.71 79.14)">Premium Tier routing is cold potato, <tspan x="-0.04" y="12">which minimizes distance and hops, </tspan><tspan x="18.53" y="24">resulting in faster and more </tspan><tspan x="44.09" y="36">secure transport</tspan></text><rect class="cls-2" x="362.49" y="124.13" width="4.2" height="18.96"/><polygon class="cls-14" points="364.5 153.15 374.25 142.23 354.93 142.23 364.5 153.15"/><rect class="cls-4" x="516.5" y="124.13" width="4.2" height="18.96"/><polygon class="cls-15" points="518.51 153.15 528.26 142.23 508.94 142.23 518.51 153.15"/><path class="cls-2" d="M400.34,201.85a42.49,42.49,0,0,0-.69-7.67H364.34v14.51h20.18A17.26,17.26,0,0,1,377,220v9.4h12.11C396.25,222.89,400.34,213.27,400.34,201.85Z"/><path class="cls-4" d="M364.34,238.5c10.12,0,18.61-3.36,24.81-9.09L377,220a22.63,22.63,0,0,1-33.69-11.89H330.83v9.72A37.48,37.48,0,0,0,364.34,238.5Z"/><path class="cls-16" d="M343.35,208.13a22.31,22.31,0,0,1,0-14.26v-9.71H330.83a37.53,37.53,0,0,0,0,33.68Z"/><path class="cls-17" d="M364.34,178.41A20.27,20.27,0,0,1,378.67,184l10.76-10.75a36.07,36.07,0,0,0-25.09-9.77,37.48,37.48,0,0,0-33.51,20.66l12.52,9.71A22.36,22.36,0,0,1,364.34,178.41Z"/></g></svg>